<?xml version="1.0" encoding="UTF-8" standalone="no"?>
<!DOCTYPE svg PUBLIC "-//W3C//DTD SVG 1.1//EN"
 "http://www.w3.org/Graphics/SVG/1.1/DTD/svg11.dtd">
<!-- Generated by graphviz version 2.43.0 (0)
 -->
<!-- Title: %3 Pages: 1 -->
<svg width="206pt" height="188pt"
 viewBox="0.00 0.00 206.00 188.00" xmlns="http://www.w3.org/2000/svg" xmlns:xlink="http://www.w3.org/1999/xlink">
<g id="graph0" class="graph" transform="scale(1 1) rotate(0) translate(4 184)">
<title>%3</title>
<polygon fill="white" stroke="transparent" points="-4,4 -4,-184 202,-184 202,4 -4,4"/>
<!-- A -->
<g id="node1" class="node">
<title>A</title>
<ellipse fill="none" stroke="black" cx="27" cy="-18" rx="27" ry="18"/>
<text text-anchor="middle" x="27" y="-14.3" font-family="Times,serif" font-size="14.00">A</text>
</g>
<!-- D -->
<g id="node3" class="node">
<title>D</title>
<ellipse fill="none" stroke="black" cx="99" cy="-90" rx="27" ry="18"/>
<text text-anchor="middle" x="99" y="-86.3" font-family="Times,serif" font-size="14.00">D</text>
</g>
<!-- A&#45;&gt;D -->
<g id="edge1" class="edge">
<title>A&#45;&gt;D</title>
<path fill="none" stroke="black" d="M41.57,-33.17C51.75,-43.06 65.52,-56.45 77.03,-67.64"/>
<polygon fill="black" stroke="black" points="74.59,-70.15 84.2,-74.62 79.47,-65.13 74.59,-70.15"/>
</g>
<!-- B -->
<g id="node2" class="node">
<title>B</title>
<ellipse fill="none" stroke="black" cx="99" cy="-18" rx="27" ry="18"/>
<text text-anchor="middle" x="99" y="-14.3" font-family="Times,serif" font-size="14.00">B</text>
</g>
<!-- B&#45;&gt;D -->
<g id="edge2" class="edge">
<title>B&#45;&gt;D</title>
<path fill="none" stroke="black" d="M99,-36.3C99,-44.02 99,-53.29 99,-61.89"/>
<polygon fill="black" stroke="black" points="95.5,-61.9 99,-71.9 102.5,-61.9 95.5,-61.9"/>
</g>
<!-- F -->
<g id="node6" class="node">
<title>F</title>
<ellipse fill="none" stroke="black" cx="135" cy="-162" rx="27" ry="18"/>
<text text-anchor="middle" x="135" y="-158.3" font-family="Times,serif" font-size="14.00">F</text>
</g>
<!-- D&#45;&gt;F -->
<g id="edge4" class="edge">
<title>D&#45;&gt;F</title>
<path fill="none" stroke="black" d="M107.35,-107.24C111.71,-115.72 117.15,-126.29 122.04,-135.8"/>
<polygon fill="black" stroke="black" points="119.01,-137.56 126.7,-144.85 125.23,-134.36 119.01,-137.56"/>
</g>
<!-- C -->
<g id="node4" class="node">
<title>C</title>
<ellipse fill="none" stroke="black" cx="171" cy="-18" rx="27" ry="18"/>
<text text-anchor="middle" x="171" y="-14.3" font-family="Times,serif" font-size="14.00">C</text>
</g>
<!-- E -->
<g id="node5" class="node">
<title>E</title>
<ellipse fill="none" stroke="black" cx="171" cy="-90" rx="27" ry="18"/>
<text text-anchor="middle" x="171" y="-86.3" font-family="Times,serif" font-size="14.00">E</text>
</g>
<!-- C&#45;&gt;E -->
<g id="edge3" class="edge">
<title>C&#45;&gt;E</title>
<path fill="none" stroke="black" d="M171,-36.3C171,-44.02 171,-53.29 171,-61.89"/>
<polygon fill="black" stroke="black" points="167.5,-61.9 171,-71.9 174.5,-61.9 167.5,-61.9"/>
</g>
<!-- E&#45;&gt;F -->
<g id="edge5" class="edge">
<title>E&#45;&gt;F</title>
<path fill="none" stroke="black" d="M162.65,-107.24C158.29,-115.72 152.85,-126.29 147.96,-135.8"/>
<polygon fill="black" stroke="black" points="144.77,-134.36 143.3,-144.85 150.99,-137.56 144.77,-134.36"/>
</g>
</g>
</svg>
