<svg xmlns="http://www.w3.org/2000/svg" xmlns:xlink="http://www.w3.org/1999/xlink" xmlns:lucid="lucid" width="1544.92" height="2059.9"><g transform="translate(-99.33357580004687 -58.5)" lucid:page-tab-id="0_0"><path d="M0 0h1870.87v2581.67H0z" fill="#fff"/><path d="M723.76 825.63c0 27.6-22.4 50-50 50-27.62 0-50-22.4-50-50 0-27.62 22.38-50 50-50 27.6 0 50 22.38 50 50zM923.76 825.63c0 27.6-22.4 50-50 50-27.62 0-50-22.4-50-50 0-27.62 22.38-50 50-50 27.6 0 50 22.38 50 50zM1123.76 825.63c0 27.6-22.4 50-50 50-27.62 0-50-22.4-50-50 0-27.62 22.38-50 50-50 27.6 0 50 22.38 50 50zM1323.76 825.63c0 27.6-22.4 50-50 50-27.62 0-50-22.4-50-50 0-27.62 22.38-50 50-50 27.6 0 50 22.38 50 50zM1523.76 825.63c0 27.6-22.4 50-50 50-27.62 0-50-22.4-50-50 0-27.62 22.38-50 50-50 27.6 0 50 22.38 50 50z" stroke="#3a414a" stroke-width="3" fill="#fff"/><path d="M225 978.13a1.25 1.25 0 0 1 1.26-1.25h1395a1.25 1.25 0 0 1 1.25 1.25 1.25 1.25 0 0 1-1.24 1.25h-1395a1.25 1.25 0 0 1-1.25-1.25z" fill="none"/><path d="M243.7 976.88h14.94m9.97 0h14.95m9.97 0h14.94m9.97 0h14.94m9.97 0h14.95m9.95 0h14.94m9.96 0h14.95m9.97 0h14.95m9.96 0h14.95m9.96 0h14.94m9.96 0h14.95m9.96 0h14.96m9.96 0h14.95m9.96 0h14.95m9.97 0h14.94m9.96 0h14.94m9.97 0h14.94m9.98 0h14.94m9.97 0h14.93m9.97 0h14.95m9.96 0h14.96m9.96 0h14.95m9.96 0h14.95m9.96 0h14.95m9.95 0h14.95m9.96 0h14.95m9.97 0h14.95m9.96 0h14.95m9.97 0h14.94m9.97 0h14.95m9.97 0h14.94m9.97 0h14.94m9.97 0h14.95m9.95 0h14.94m9.96 0h14.95m9.97 0h14.95m9.96 0h14.95m9.96 0h14.94m9.96 0h14.95m9.96 0h14.96m9.96 0h14.95m9.97 0h14.94m9.96 0h14.95m9.96 0h14.94m9.97 0h14.94m9.98 0h14.94m9.97 0h14.94m9.96 0h14.94m9.97 0h14.96m9.96 0h14.95m9.96 0h14.95m9.96 0h14.95m9.95 0H1554m9.96 0h14.95m9.97 0h14.95m9.97 0h7.66l.18.06.18.08.17.1.14.13.13.14.1.16.08.18.04.2v.4l-.05.18-.08.18-.1.16-.13.15-.15.14-.17.1-.2.08-.18.04-.2.02h-7.46m-9.98 0h-14.95m-9.96 0h-14.94m-9.96 0h-14.95m-9.96 0h-14.96m-9.96 0h-14.95m-9.96 0h-14.95m-9.96 0h-14.95m-9.96 0h-14.94m-9.96 0h-14.95m-9.98 0h-14.94m-9.97 0h-14.93m-9.97 0h-14.94m-9.97 0h-14.96m-9.96 0h-14.94m-9.97 0h-14.95m-9.96 0h-14.95m-9.95 0h-14.95m-9.96 0h-14.95m-9.97 0h-14.95m-9.96 0h-14.95m-9.96 0h-14.94m-9.97 0h-14.95m-9.96 0h-14.96m-9.97 0h-14.94m-9.97 0h-14.94m-9.97 0H966.1m-9.96 0H941.2m-9.97 0h-14.95m-9.96 0h-14.95m-9.96 0h-14.94m-9.96 0h-14.95m-9.96 0h-14.96m-9.96 0h-14.95m-9.96 0h-14.95m-9.96 0H741.9m-9.95 0H717m-9.97 0H692.1m-9.98 0h-14.94m-9.97 0h-14.93m-9.97 0h-14.94m-9.97 0h-14.95m-9.97 0h-14.95m-9.96 0h-14.95m-9.96 0H517.7m-9.95 0H492.8m-9.96 0H467.9m-9.97 0h-14.95m-9.96 0h-14.95m-9.96 0h-14.94m-9.97 0h-14.95m-9.96 0h-14.96m-9.97 0h-14.94m-9.97 0h-14.94m-9.97 0H268.6m-9.96 0H243.7m-9.97 0h-7.47l-.2-.02-.2-.04-.17-.08-.18-.1-.15-.13-.12-.14-.1-.16-.08-.18-.05-.2v-.4l.05-.18.07-.18.1-.16.13-.15.15-.13.17-.1.17-.08.2-.05.2-.02h7.46" stroke="#3a414a" stroke-width="2.5" fill="none"/><path d="M223.76 866a6 6 0 0 1 6-6H614a6 6 0 0 1 6 6v103.63a6 6 0 0 1-6 6H229.76a6 6 0 0 1-6-6z" stroke="#000" stroke-opacity="0" fill="#fff" fill-opacity="0"/><use xlink:href="#a" transform="matrix(1,0,0,1,228.7578850194277,865) translate(92.3271604938272 48.80555555555554)"/><use xlink:href="#b" transform="matrix(1,0,0,1,228.7578850194277,865) translate(55.104938271604965 84.36111111111109)"/><use xlink:href="#c" transform="matrix(1,0,0,1,228.7578850194277,865) translate(243.12962962962962 84.36111111111109)"/><path d="M122.58 776.37a6 6 0 0 1 2.84-8l236.6-112.7a6 6 0 0 1 8 2.83l26.15 54.9a6 6 0 0 1-2.84 8l-236.6 112.7a6 6 0 0 1-8-2.84z" stroke="#000" stroke-opacity="0" fill="#fff" fill-opacity="0"/><use xlink:href="#d" transform="matrix(0.9028111406178642,-0.43003725928839126,0.43003725928839126,0.9028111406178642,126.66424199953127,773.3131557541029) translate(2.228395061728463 26.034722222222218)"/><use xlink:href="#e" transform="matrix(0.9028111406178642,-0.43003725928839126,0.43003725928839126,0.9028111406178642,126.66424199953127,773.3131557541029) translate(57.4876543209877 26.034722222222218)"/><use xlink:href="#f" transform="matrix(0.9028111406178642,-0.43003725928839126,0.43003725928839126,0.9028111406178642,126.66424199953127,773.3131557541029) translate(92.0555555555556 26.034722222222218)"/><use xlink:href="#g" transform="matrix(0.9028111406178642,-0.43003725928839126,0.43003725928839126,0.9028111406178642,126.66424199953127,773.3131557541029) translate(111.80864197530867 26.034722222222218)"/><use xlink:href="#h" transform="matrix(0.9028111406178642,-0.43003725928839126,0.43003725928839126,0.9028111406178642,126.66424199953127,773.3131557541029) translate(180.89506172839506 26.034722222222218)"/><use xlink:href="#i" transform="matrix(0.9028111406178642,-0.43003725928839126,0.43003725928839126,0.9028111406178642,126.66424199953127,773.3131557541029) translate(237.14197530864195 26.034722222222218)"/><use xlink:href="#j" transform="matrix(0.9028111406178642,-0.43003725928839126,0.43003725928839126,0.9028111406178642,126.66424199953127,773.3131557541029) translate(11.166666666666714 47.36805555555554)"/><use xlink:href="#k" transform="matrix(0.9028111406178642,-0.43003725928839126,0.43003725928839126,0.9028111406178642,126.66424199953127,773.3131557541029) translate(86.08024691358025 47.36805555555554)"/><use xlink:href="#l" transform="matrix(0.9028111406178642,-0.43003725928839126,0.43003725928839126,0.9028111406178642,126.66424199953127,773.3131557541029) translate(152.1543209876543 47.36805555555554)"/><use xlink:href="#m" transform="matrix(0.9028111406178642,-0.43003725928839126,0.43003725928839126,0.9028111406178642,126.66424199953127,773.3131557541029) translate(166.9691358024691 47.36805555555554)"/><use xlink:href="#e" transform="matrix(0.9028111406178642,-0.43003725928839126,0.43003725928839126,0.9028111406178642,126.66424199953127,773.3131557541029) translate(185.68518518518516 47.36805555555554)"/><use xlink:href="#n" transform="matrix(0.9028111406178642,-0.43003725928839126,0.43003725928839126,0.9028111406178642,126.66424199953127,773.3131557541029) translate(220.25308641975306 47.36805555555554)"/><path d="M346 859.5l-.38-15.86-.84-11.38-1.1-8.87-1.3-7.34-1.46-6.32-1.58-5.6-1.72-5.07-1.85-4.68-2-4.4-2.15-4.17-2.33-4-2.56-3.92-2.8-3.83-3.07-3.84-3.45-3.85-3.87-3.93-1.5-1.4" stroke="#3a414a" stroke-linejoin="round" fill="none"/><path d="M346.5 860h-1v-.5l1-.03z" stroke="#3a414a" stroke-width=".05" fill="#3a414a"/><path d="M331.3 766.6l-19.23-5.47 4.47 19.5" stroke="#3a414a" fill="none"/><path d="M223.76 981.63a6 6 0 0 1 6-6H614a6 6 0 0 1 6 6v169a6 6 0 0 1-6 6H229.76a6 6 0 0 1-6-6z" stroke="#000" stroke-opacity="0" fill="#fff" fill-opacity="0"/><use xlink:href="#o" transform="matrix(1,0,0,1,228.7578850194277,980.6295685689656) translate(68.99382716049388 83.64930555555554)"/><use xlink:href="#b" transform="matrix(1,0,0,1,228.7578850194277,980.6295685689656) translate(24.549382716049422 119.20486111111109)"/><use xlink:href="#p" transform="matrix(1,0,0,1,228.7578850194277,980.6295685689656) translate(212.57407407407408 119.20486111111109)"/><path d="M823.76 1126.63c0 27.6-22.4 50-50 50-27.62 0-50-22.4-50-50 0-27.62 22.38-50 50-50 27.6 0 50 22.38 50 50zM1023.76 1126.63c0 27.6-22.4 50-50 50-27.62 0-50-22.4-50-50 0-27.62 22.38-50 50-50 27.6 0 50 22.38 50 50zM1223.76 1126.63c0 27.6-22.4 50-50 50-27.62 0-50-22.4-50-50 0-27.62 22.38-50 50-50 27.6 0 50 22.38 50 50zM1423.76 1126.63c0 27.6-22.4 50-50 50-27.62 0-50-22.4-50-50 0-27.62 22.38-50 50-50 27.6 0 50 22.38 50 50z" stroke="#3a414a" fill="#282c33"/><path d="M690.45 875.88l60.9 183.3" stroke="#3a414a" stroke-width="3" fill="none"/><path d="M691.9 875.44l-2.86.95-.48-1.47 2.84-.95z" stroke="#3a414a" stroke-width=".05" fill="#3a414a"/><path d="M756.32 1074.14l-8.9-12.07 8.8-2.92z" stroke="#3a414a" stroke-width="3" fill="#3a414a"/><path d="M857.06 875.9l-60.9 183.26" stroke="#3a414a" stroke-width="3" fill="none"/><path d="M858.52 874.84l.43.1-.48 1.47-2.85-.93.5-1.5z" stroke="#3a414a" stroke-width=".05" fill="#3a414a"/><path d="M791.2 1074.12l.1-15 8.8 2.93z" stroke="#3a414a" stroke-width="3" fill="#3a414a"/><path d="M890.45 875.88l60.9 183.3" stroke="#3a414a" stroke-width="3" fill="none"/><path d="M891.9 875.44l-2.86.95-.48-1.47 2.84-.95z" stroke="#3a414a" stroke-width=".05" fill="#3a414a"/><path d="M956.32 1074.14l-8.9-12.07 8.8-2.92z" stroke="#3a414a" stroke-width="3" fill="#3a414a"/><path d="M1090.45 875.88l60.9 183.3" stroke="#3a414a" stroke-width="3" fill="none"/><path d="M1091.9 875.44l-2.86.95-.48-1.47 2.84-.95z" stroke="#3a414a" stroke-width=".05" fill="#3a414a"/><path d="M1156.32 1074.14l-8.9-12.07 8.8-2.92z" stroke="#3a414a" stroke-width="3" fill="#3a414a"/><path d="M1111.15 863.15l212.42 213.13" stroke="#3a414a" stroke-width="3" fill="none"/><path d="M1112.24 862.12l-2.12 2.12-1.1-1.1.62-.56 1.48-1.6z" stroke="#3a414a" stroke-width=".05" fill="#3a414a"/><path d="M1334.7 1087.44l-13.35-6.83 6.56-6.53z" stroke="#3a414a" stroke-width="3" fill="#3a414a"/><path d="M1257.06 875.9l-31.73 95.5c-2.62-.9-5.45.53-6.32 3.15-.86 2.62.56 5.45 3.18 6.33l-26 78.28" stroke="#3a414a" stroke-width="3" fill="none"/><path d="M1258.52 874.84l.43.1-.48 1.47-2.85-.93.5-1.5z" stroke="#3a414a" stroke-width=".05" fill="#3a414a"/><path d="M1191.2 1074.12l.1-15 8.8 2.93z" stroke="#3a414a" stroke-width="3" fill="#3a414a"/><path d="M1457.06 875.9l-60.9 183.26" stroke="#3a414a" stroke-width="3" fill="none"/><path d="M1458.52 874.84l.43.1-.48 1.47-2.85-.93.5-1.5z" stroke="#3a414a" stroke-width=".05" fill="#3a414a"/><path d="M1391.2 1074.12l.1-15 8.8 2.93z" stroke="#3a414a" stroke-width="3" fill="#3a414a"/><path d="M923.76 1326.63c0 27.6-22.4 50-50 50-27.62 0-50-22.4-50-50 0-27.62 22.38-50 50-50 27.6 0 50 22.38 50 50zM1123.76 1326.63c0 27.6-22.4 50-50 50-27.62 0-50-22.4-50-50 0-27.62 22.38-50 50-50 27.6 0 50 22.38 50 50zM1323.76 1326.63c0 27.6-22.4 50-50 50-27.62 0-50-22.4-50-50 0-27.62 22.38-50 50-50 27.6 0 50 22.38 50 50zM623.76 1526.63c0 27.6-22.4 50-50 50-27.62 0-50-22.4-50-50 0-27.62 22.38-50 50-50 27.6 0 50 22.38 50 50zM823.76 1526.63c0 27.6-22.4 50-50 50-27.62 0-50-22.4-50-50 0-27.62 22.38-50 50-50 27.6 0 50 22.38 50 50zM1023.76 1526.63c0 27.6-22.4 50-50 50-27.62 0-50-22.4-50-50 0-27.62 22.38-50 50-50 27.6 0 50 22.38 50 50zM1223.76 1526.63c0 27.6-22.4 50-50 50-27.62 0-50-22.4-50-50 0-27.62 22.38-50 50-50 27.6 0 50 22.38 50 50zM1423.76 1526.63c0 27.6-22.4 50-50 50-27.62 0-50-22.4-50-50 0-27.62 22.38-50 50-50 27.6 0 50 22.38 50 50zM1623.76 1526.63c0 27.6-22.4 50-50 50-27.62 0-50-22.4-50-50 0-27.62 22.38-50 50-50 27.6 0 50 22.38 50 50z" stroke="#3a414a" fill="#282c33"/><path d="M750.52 1173.1l-144.98 289.96" stroke="#3a414a" stroke-width="3" fill="none"/><path d="M752.54 1172.4l-.7 1.4-2.68-1.34.68-1.36z" stroke="#3a414a" stroke-width=".05" fill="#3a414a"/><path d="M598.5 1477.16l2.23-14.83 8.3 4.14z" stroke="#3a414a" stroke-width="3" fill="#3a414a"/><path d="M797 1173.14l44.95 89.88" stroke="#3a414a" stroke-width="3" fill="none"/><path d="M798.37 1172.5l-2.68 1.34-.73-1.43 1.66-.74 1.03-.58z" stroke="#3a414a" stroke-width=".05" fill="#3a414a"/><path d="M849 1277.12l-10.52-10.68 8.3-4.15z" stroke="#3a414a" stroke-width="3" fill="#3a414a"/><path d="M850.52 1373.1l-44.98 89.96" stroke="#3a414a" stroke-width="3" fill="none"/><path d="M852.54 1372.4l-.7 1.4-2.68-1.34.68-1.36z" stroke="#3a414a" stroke-width=".05" fill="#3a414a"/><path d="M798.5 1477.16l2.23-14.83 8.3 4.14z" stroke="#3a414a" stroke-width="3" fill="#3a414a"/><path d="M1025.48 1345.94l-197.08 78.83c-1.02-2.56-3.93-3.8-6.5-2.78-2.56 1-3.8 3.92-2.78 6.5l-179.34 71.72" stroke="#3a414a" stroke-width="3" fill="none"/><path d="M1026.67 1344.92l.82 1.83-1.5.6-1.1-2.8 1.46-.58z" stroke="#3a414a" stroke-width=".05" fill="#3a414a"/><path d="M625.14 1506.08l11.53-9.6 3.44 8.6z" stroke="#3a414a" stroke-width="3" fill="#3a414a"/><path d="M897 1373.14l7.86 15.68c2.47-1.23 5.47-.23 6.7 2.24 1.24 2.47.24 5.47-2.23 6.7l32.62 65.26" stroke="#3a414a" stroke-width="3" fill="none"/><path d="M898.37 1372.5l-2.68 1.34-.73-1.43 1.66-.74 1.03-.58z" stroke="#3a414a" stroke-width=".05" fill="#3a414a"/><path d="M949 1477.12l-10.52-10.68 8.3-4.15z" stroke="#3a414a" stroke-width="3" fill="#3a414a"/><path d="M950.52 1173.1l-44.98 89.96" stroke="#3a414a" stroke-width="3" fill="none"/><path d="M952.54 1172.4l-.7 1.4-2.68-1.34.68-1.36z" stroke="#3a414a" stroke-width=".05" fill="#3a414a"/><path d="M898.5 1277.16l2.23-14.83 8.3 4.14z" stroke="#3a414a" stroke-width="3" fill="#3a414a"/><path d="M1150.52 1173.1l-44.98 89.96" stroke="#3a414a" stroke-width="3" fill="none"/><path d="M1152.55 1172.4l-.7 1.4-2.68-1.34.67-1.36z" stroke="#3a414a" stroke-width=".05" fill="#3a414a"/><path d="M1098.5 1277.16l2.23-14.83 8.3 4.14z" stroke="#3a414a" stroke-width="3" fill="#3a414a"/><path d="M1397 1173.14l144.95 289.88" stroke="#3a414a" stroke-width="3" fill="none"/><path d="M1398.37 1172.5l-2.68 1.34-.73-1.43 1.66-.74 1.03-.58z" stroke="#3a414a" stroke-width=".05" fill="#3a414a"/><path d="M1549 1477.12l-10.52-10.68 8.3-4.15z" stroke="#3a414a" stroke-width="3" fill="#3a414a"/><path d="M1373.76 1178.63v276.88" stroke="#3a414a" stroke-width="3" fill="none"/><path d="M1373.75 1177.13l1.5-.05v1.6h-3v-1.63z" stroke="#3a414a" stroke-width=".05" fill="#3a414a"/><path d="M1373.76 1471.28l-4.64-14.27h9.27z" stroke="#3a414a" stroke-width="3" fill="#3a414a"/><path d="M1330.52 1155.46l-197.6 131.74" stroke="#3a414a" stroke-width="3" fill="none"/><path d="M1331.23 1153.88l1.4 1.96-1.3.9-1.68-2.5 1.3-.87z" stroke="#3a414a" stroke-width=".05" fill="#3a414a"/><path d="M1119.8 1295.94l9.3-11.77 5.13 7.72z" stroke="#3a414a" stroke-width="3" fill="#3a414a"/><path d="M1273.76 878.63v142.67c-2.76 0-5 2.24-5 5s2.24 5 5 5v157c-2.76 0-5 2.24-5 5s2.24 5 5 5v57.2" stroke="#3a414a" stroke-width="3" fill="none"/><path d="M1273.75 877.13l1.5-.05v1.6h-3v-1.62z" stroke="#3a414a" stroke-width=".05" fill="#3a414a"/><path d="M1273.76 1271.28l-4.64-14.27h9.27z" stroke="#3a414a" stroke-width="3" fill="#3a414a"/><path d="M1350.52 1173.1l-44.98 89.96" stroke="#3a414a" stroke-width="3" fill="none"/><path d="M1352.55 1172.4l-.7 1.4-2.68-1.34.67-1.36z" stroke="#3a414a" stroke-width=".05" fill="#3a414a"/><path d="M1298.5 1277.16l2.23-14.83 8.3 4.14z" stroke="#3a414a" stroke-width="3" fill="#3a414a"/><path d="M1250.52 1373.1l-44.98 89.96" stroke="#3a414a" stroke-width="3" fill="none"/><path d="M1252.55 1372.4l-.7 1.4-2.68-1.34.67-1.36z" stroke="#3a414a" stroke-width=".05" fill="#3a414a"/><path d="M1198.5 1477.16l2.23-14.83 8.3 4.14z" stroke="#3a414a" stroke-width="3" fill="#3a414a"/><path d="M1297 1373.14l44.95 89.88" stroke="#3a414a" stroke-width="3" fill="none"/><path d="M1298.37 1372.5l-2.68 1.34-.73-1.43 1.66-.74 1.03-.58z" stroke="#3a414a" stroke-width=".05" fill="#3a414a"/><path d="M1349 1477.12l-10.52-10.68 8.3-4.15z" stroke="#3a414a" stroke-width="3" fill="#3a414a"/><path d="M1097 1373.14l44.95 89.88" stroke="#3a414a" stroke-width="3" fill="none"/><path d="M1098.37 1372.5l-2.68 1.34-.73-1.43 1.66-.74 1.03-.58z" stroke="#3a414a" stroke-width=".05" fill="#3a414a"/><path d="M1149 1477.12l-10.52-10.68 8.3-4.15z" stroke="#3a414a" stroke-width="3" fill="#3a414a"/><path d="M1317 1355.46l52.6 35.06c1.53-2.3 4.63-2.92 6.93-1.38 2.3 1.53 2.92 4.63 1.4 6.93l136.67 91.12" stroke="#3a414a" stroke-width="3" fill="none"/><path d="M1317.87 1354.24l-1.66 2.5-1.3-.88.57-.75 1.08-1.75z" stroke="#3a414a" stroke-width=".05" fill="#3a414a"/><path d="M1527.72 1495.93l-14.44-4.05 5.14-7.72z" stroke="#3a414a" stroke-width="3" fill="#3a414a"/><path d="M866.28 878.04l-47.42 332.43c-2.74-.4-5.27 1.5-5.66 4.24-.4 2.75 1.5 5.28 4.25 5.67l-30.88 216.47c-2.74-.4-5.27 1.5-5.66 4.24-.38 2.74 1.52 5.27 4.25 5.66l-1.36 9.54" stroke="#3a414a" stroke-width="3" fill="none"/><path d="M867.98 876.78l-.22 1.5-2.97-.4.2-1.54z" stroke="#3a414a" stroke-width=".05" fill="#3a414a"/><path d="M781.57 1471.88L779 1457.1l9.17 1.32z" stroke="#3a414a" stroke-width="3" fill="#3a414a"/><path d="M1066.28 878.04L998.68 1352c-2.74-.4-5.28 1.5-5.67 4.24-.38 2.73 1.52 5.27 4.26 5.66l-13.47 94.38" stroke="#3a414a" stroke-width="3" fill="none"/><path d="M1067.98 876.78l-.22 1.5-2.97-.4.2-1.54z" stroke="#3a414a" stroke-width=".05" fill="#3a414a"/><path d="M981.57 1471.88L979 1457.1l9.17 1.32z" stroke="#3a414a" stroke-width="3" fill="#3a414a"/><path d="M523.76 1722.9a6 6 0 0 1 6-6h1068a6 6 0 0 1 6 6v368a6 6 0 0 1-6 6h-1068a6 6 0 0 1-6-6z" stroke="#3a414a" stroke-width="3" fill="#fff"/><path d="M563.76 1762.9a6 6 0 0 1 6-6h448a6 6 0 0 1 6 6v88a6 6 0 0 1-6 6h-448a6 6 0 0 1-6-6z" stroke="#000" stroke-opacity="0" stroke-width="3" fill="#fff" fill-opacity="0"/><use xlink:href="#q" transform="matrix(1,0,0,1,568.7578850194277,1761.8974614498372) translate(0 49.05902777777778)"/><use xlink:href="#r" transform="matrix(1,0,0,1,568.7578850194277,1761.8974614498372) translate(27.16049382716049 49.05902777777778)"/><use xlink:href="#s" transform="matrix(1,0,0,1,568.7578850194277,1761.8974614498372) translate(179.99999999999997 49.05902777777778)"/><use xlink:href="#t" transform="matrix(1,0,0,1,568.7578850194277,1761.8974614498372) translate(237.96296296296293 49.05902777777778)"/><use xlink:href="#u" transform="matrix(1,0,0,1,568.7578850194277,1761.8974614498372) translate(392.83950617283944 49.05902777777778)"/><path d="M1117.52 1766.2a6 6 0 0 1 6-6h108a6 6 0 0 1 6 6v84.7a6 6 0 0 1-6 6h-108a6 6 0 0 1-6-6z" stroke="#000" stroke-opacity="0" stroke-width="3" fill="#fff" fill-opacity="0"/><use xlink:href="#v" transform="matrix(1,0,0,1,1122.5157700388554,1765.1936966854694) translate(14.290123456790127 47.68402777777778)"/><use xlink:href="#u" transform="matrix(1,0,0,1,1122.5157700388554,1765.1936966854694) translate(51.26543209876544 47.68402777777778)"/><path d="M563.76 1862.9a6 6 0 0 1 6-6h588a6 6 0 0 1 6 6v91.37a6 6 0 0 1-6 6h-588a6 6 0 0 1-6-6z" stroke="#000" stroke-opacity="0" stroke-width="3" fill="#fff" fill-opacity="0"/><use xlink:href="#w" transform="matrix(1,0,0,1,568.7578850194277,1861.8974614498372) translate(0 50.09027777777778)"/><use xlink:href="#x" transform="matrix(1,0,0,1,568.7578850194277,1861.8974614498372) translate(141.7901234567901 50.09027777777778)"/><use xlink:href="#y" transform="matrix(1,0,0,1,568.7578850194277,1861.8974614498372) translate(352.4074074074074 50.09027777777778)"/><use xlink:href="#z" transform="matrix(1,0,0,1,568.7578850194277,1861.8974614498372) translate(389.3827160493827 50.09027777777778)"/><use xlink:href="#u" transform="matrix(1,0,0,1,568.7578850194277,1861.8974614498372) translate(482.16049382716045 50.09027777777778)"/><path d="M1213.76 1864.58a6 6 0 0 1 6-6h208a6 6 0 0 1 6 6v88a6 6 0 0 1-6 6h-208a6 6 0 0 1-6-6z" stroke="#000" stroke-opacity="0" stroke-width="3" fill="#fff" fill-opacity="0"/><use xlink:href="#A" transform="matrix(1,0,0,1,1218.7578850194277,1863.5826771653544) translate(0 48.71527777777778)"/><use xlink:href="#B" transform="matrix(1,0,0,1,1218.7578850194277,1863.5826771653544) translate(20.555555555555554 48.71527777777778)"/><use xlink:href="#y" transform="matrix(1,0,0,1,1218.7578850194277,1863.5826771653544) translate(126.48148148148147 48.71527777777778)"/><use xlink:href="#u" transform="matrix(1,0,0,1,1218.7578850194277,1863.5826771653544) translate(163.45679012345678 48.71527777777778)"/><path d="M1117.52 1806.9c0 27.6-22.4 50-50 50-27.62 0-50-22.4-50-50 0-27.62 22.38-50 50-50 27.6 0 50 22.38 50 50z" stroke="#3a414a" stroke-width="3" fill="#fff"/><path d="M1337.52 1806.9c0 27.6-22.4 50-50 50-27.62 0-50-22.4-50-50 0-27.62 22.38-50 50-50 27.6 0 50 22.38 50 50z" stroke="#3a414a" fill="#282c33"/><path d="M1203.76 1906.9c0 27.6-22.4 50-50 50-27.62 0-50-22.4-50-50 0-27.62 22.38-50 50-50 27.6 0 50 22.38 50 50z" stroke="#3a414a" stroke-width="3" fill="#fff"/><path d="M563.76 1956.9h180v100h-180z" fill="#fff" fill-opacity="0"/><use xlink:href="#C" transform="matrix(1,0,0,1,568.7578850194277,1961.8974614498375) translate(0 48.71527777777778)"/><use xlink:href="#u" transform="matrix(1,0,0,1,568.7578850194277,1961.8974614498375) translate(120.74074074074072 48.71527777777778)"/><path d="M1543.76 1906.9c0 27.6-22.4 50-50 50-27.62 0-50-22.4-50-50 0-27.62 22.38-50 50-50 27.6 0 50 22.38 50 50z" stroke="#3a414a" fill="#282c33"/><path d="M863.76 1956.9h160v100h-160z" fill="#fff" fill-opacity="0"/><use xlink:href="#D" transform="matrix(1,0,0,1,868.7578850194277,1961.8974614498375) translate(6.574074074074076 48.71527777777778)"/><use xlink:href="#E" transform="matrix(1,0,0,1,868.7578850194277,1961.8974614498375) translate(12.746913580246915 48.71527777777778)"/><use xlink:href="#F" transform="matrix(1,0,0,1,868.7578850194277,1961.8974614498375) translate(52.19135802469136 48.71527777777778)"/><path d="M863.76 2006.9c0 27.6-22.4 50-50 50-27.62 0-50-22.4-50-50 0-27.62 22.38-50 50-50 27.6 0 50 22.38 50 50z" stroke="#3a414a" stroke-width="3" fill="#fff"/><path d="M168.75 1162.07a6 6 0 0 1 7.97-2.9l222.94 104a6 6 0 0 1 2.9 7.98l-26.22 56.18a6 6 0 0 1-7.97 2.9l-222.93-104a6 6 0 0 1-2.9-7.98z" stroke="#000" stroke-opacity="0" fill="#fff" fill-opacity="0"/><use xlink:href="#G" transform="matrix(0.906229603893098,0.42278588555882357,-0.42278588555882357,0.906229603893098,173.70337412302422,1163.2746460162252) translate(10.543209876543244 26.222222222222218)"/><use xlink:href="#H" transform="matrix(0.906229603893098,0.42278588555882357,-0.42278588555882357,0.906229603893098,173.70337412302422,1163.2746460162252) translate(65.80246913580248 26.222222222222218)"/><use xlink:href="#I" transform="matrix(0.906229603893098,0.42278588555882357,-0.42278588555882357,0.906229603893098,173.70337412302422,1163.2746460162252) translate(167.43209876543207 26.222222222222218)"/><use xlink:href="#J" transform="matrix(0.906229603893098,0.42278588555882357,-0.42278588555882357,0.906229603893098,173.70337412302422,1163.2746460162252) translate(197.99999999999997 26.222222222222218)"/><use xlink:href="#K" transform="matrix(0.906229603893098,0.42278588555882357,-0.42278588555882357,0.906229603893098,173.70337412302422,1163.2746460162252) translate(67.28395061728398 47.55555555555554)"/><path d="M422.16 1115.4l.67 12.84.1 10.18-.3 9.1-.63 8.35-.9 7.7-1.15 7.14-1.36 6.66-1.54 6.2-1.7 5.83-1.86 5.46-2 5.15-2.1 4.88-2.25 4.62-2.36 4.38-2.5 4.18-2.6 4-2.72 3.8-2.85 3.67-3 3.52-3.12 3.4-3.27 3.26-3.44 3.16-3.64 3.05-3.8 2.96-1.18.85" stroke="#3a414a" stroke-linejoin="round" fill="none"/><path d="M422.16 1115.4l-.03-.5M379.62 1230.86l-6.92 18.76 19.78-2.97" stroke="#3a414a" fill="none"/><path d="M527.52 86a6 6 0 0 1 6-6h364.24a6 6 0 0 1 6 6v104.67a6 6 0 0 1-6 6H533.52a6 6 0 0 1-6-6z" stroke="#000" stroke-opacity="0" stroke-width="3" fill="#fff" fill-opacity="0"/><use xlink:href="#L" transform="matrix(1,0,0,1,532.5157700388554,85) translate(3.8703703703704377 62.30555555555554)"/><use xlink:href="#M" transform="matrix(1,0,0,1,532.5157700388554,85) translate(193.00617283950618 62.30555555555554)"/><path d="M500 186a6 6 0 0 1 6-6h191.76a6 6 0 0 1 6 6v398a6 6 0 0 1-6 6H506a6 6 0 0 1-6-6z" stroke="#3a414a" stroke-width="3" fill="#fff"/><g><use xlink:href="#N" transform="matrix(1,0,0,1,505,185.00000000000017) translate(0 17.77777777777778)"/><use xlink:href="#O" transform="matrix(1,0,0,1,505,185.00000000000017) translate(0 51.55555555555556)"/><use xlink:href="#P" transform="matrix(1,0,0,1,505,185.00000000000017) translate(37.03703703703704 51.55555555555556)"/><use xlink:href="#R" transform="matrix(1,0,0,1,505,185.00000000000017) translate(0 119.1111111111111)"/><use xlink:href="#S" transform="matrix(1,0,0,1,505,185.00000000000017) translate(6.172839506172835 119.1111111111111)"/><use xlink:href="#T" transform="matrix(1,0,0,1,505,185.00000000000017) translate(0 145.77777777777774)"/><use xlink:href="#U" transform="matrix(1,0,0,1,505,185.00000000000017) translate(12.34567901234567 145.77777777777774)"/><use xlink:href="#V" transform="matrix(1,0,0,1,505,185.00000000000017) translate(90.22222222222216 145.77777777777774)"/><use xlink:href="#W" transform="matrix(1,0,0,1,505,185.00000000000017) translate(142.46913580246903 145.77777777777774)"/><use xlink:href="#X" transform="matrix(1,0,0,1,505,185.00000000000017) translate(0 168.88888888888883)"/><use xlink:href="#Y" transform="matrix(1,0,0,1,505,185.00000000000017) translate(9.876543209876536 168.88888888888883)"/><use xlink:href="#V" transform="matrix(1,0,0,1,505,185.00000000000017) translate(38.469135802469104 168.88888888888883)"/><use xlink:href="#V" transform="matrix(1,0,0,1,505,185.00000000000017) translate(90.71604938271598 168.88888888888883)"/><use xlink:href="#W" transform="matrix(1,0,0,1,505,185.00000000000017) translate(142.96296296296285 168.88888888888883)"/><use xlink:href="#X" transform="matrix(1,0,0,1,505,185.00000000000017) translate(0 190.22222222222214)"/><use xlink:href="#Z" transform="matrix(1,0,0,1,505,185.00000000000017) translate(9.876543209876536 190.22222222222214)"/><use xlink:href="#Y" transform="matrix(1,0,0,1,505,185.00000000000017) translate(85.77777777777771 190.22222222222214)"/><use xlink:href="#aa" transform="matrix(1,0,0,1,505,185.00000000000017) translate(114.37037037037028 190.22222222222214)"/><use xlink:href="#ab" transform="matrix(1,0,0,1,505,185.00000000000017) translate(0 211.55555555555546)"/><use xlink:href="#ac" transform="matrix(1,0,0,1,505,185.00000000000017) translate(0 236.44444444444434)"/><use xlink:href="#ad" transform="matrix(1,0,0,1,505,185.00000000000017) translate(4.938271604938268 236.44444444444434)"/><use xlink:href="#ae" transform="matrix(1,0,0,1,505,185.00000000000017) translate(0 263.111111111111)"/><use xlink:href="#af" transform="matrix(1,0,0,1,505,185.00000000000017) translate(12.34567901234567 263.111111111111)"/><use xlink:href="#V" transform="matrix(1,0,0,1,505,185.00000000000017) translate(113.87654320987644 263.111111111111)"/><use xlink:href="#W" transform="matrix(1,0,0,1,505,185.00000000000017) translate(166.12345679012333 263.111111111111)"/><use xlink:href="#X" transform="matrix(1,0,0,1,505,185.00000000000017) translate(0 286.2222222222221)"/><use xlink:href="#Z" transform="matrix(1,0,0,1,505,185.00000000000017) translate(9.876543209876536 286.2222222222221)"/><use xlink:href="#V" transform="matrix(1,0,0,1,505,185.00000000000017) translate(85.77777777777771 286.2222222222221)"/><use xlink:href="#W" transform="matrix(1,0,0,1,505,185.00000000000017) translate(138.0246913580246 286.2222222222221)"/><use xlink:href="#X" transform="matrix(1,0,0,1,505,185.00000000000017) translate(0 307.55555555555543)"/><use xlink:href="#Z" transform="matrix(1,0,0,1,505,185.00000000000017) translate(9.876543209876536 307.55555555555543)"/><use xlink:href="#Y" transform="matrix(1,0,0,1,505,185.00000000000017) translate(85.77777777777771 307.55555555555543)"/><use xlink:href="#W" transform="matrix(1,0,0,1,505,185.00000000000017) translate(114.37037037037028 307.55555555555543)"/><use xlink:href="#X" transform="matrix(1,0,0,1,505,185.00000000000017) translate(0 328.88888888888874)"/><use xlink:href="#V" transform="matrix(1,0,0,1,505,185.00000000000017) translate(9.876543209876536 328.88888888888874)"/><use xlink:href="#Z" transform="matrix(1,0,0,1,505,185.00000000000017) translate(62.12345679012341 328.88888888888874)"/><use xlink:href="#ag" transform="matrix(1,0,0,1,505,185.00000000000017) translate(138.0246913580246 328.88888888888874)"/><use xlink:href="#ah" transform="matrix(1,0,0,1,505,185.00000000000017) translate(0 350.22222222222206)"/><use xlink:href="#ai" transform="matrix(1,0,0,1,505,185.00000000000017) translate(0 371.5555555555554)"/><use xlink:href="#aj" transform="matrix(1,0,0,1,505,185.00000000000017) translate(4.938271604938268 371.5555555555554)"/><use xlink:href="#ak" transform="matrix(1,0,0,1,505,185.00000000000017) translate(0 392.8888888888887)"/></g><path d="M1100 86a6 6 0 0 1 6-6h491.76a6 6 0 0 1 6 6v88a6 6 0 0 1-6 6H1106a6 6 0 0 1-6-6z" stroke="#000" stroke-opacity="0" stroke-width="3" fill="#fff" fill-opacity="0"/><g><use xlink:href="#al" transform="matrix(1,0,0,1,1105,85) translate(0.45679012345689785 55.46180555555554)"/><use xlink:href="#am" transform="matrix(1,0,0,1,1105,85) translate(150.82716049382722 55.46180555555554)"/><use xlink:href="#an" transform="matrix(1,0,0,1,1105,85) translate(389.96296296296293 55.46180555555554)"/></g><path d="M1183.76 186a6 6 0 0 1 6-6H1454a6 6 0 0 1 6 6v388a6 6 0 0 1-6 6h-264.24a6 6 0 0 1-6-6zM751.88 186a6 6 0 0 1 6-6h191.76a6 6 0 0 1 6 6v232.67a6 6 0 0 1-6 6H757.88a6 6 0 0 1-6-6z" stroke="#3a414a" stroke-width="3" fill="#fff"/><g><use xlink:href="#N" transform="matrix(1,0,0,1,756.8789425097139,185) translate(0 17.77777777777778)"/><use xlink:href="#ao" transform="matrix(1,0,0,1,756.8789425097139,185) translate(0 44.44444444444444)"/><use xlink:href="#aj" transform="matrix(1,0,0,1,756.8789425097139,185) translate(41.9753086419753 44.44444444444444)"/><use xlink:href="#ah" transform="matrix(1,0,0,1,756.8789425097139,185) translate(0 67.55555555555554)"/><use xlink:href="#ai" transform="matrix(1,0,0,1,756.8789425097139,185) translate(0 92.44444444444443)"/><use xlink:href="#ap" transform="matrix(1,0,0,1,756.8789425097139,185) translate(4.938271604938268 92.44444444444443)"/><use xlink:href="#ae" transform="matrix(1,0,0,1,756.8789425097139,185) translate(0 119.11111111111109)"/><use xlink:href="#aq" transform="matrix(1,0,0,1,756.8789425097139,185) translate(12.34567901234567 119.11111111111109)"/><use xlink:href="#ar" transform="matrix(1,0,0,1,756.8789425097139,185) translate(24.197530864197514 119.11111111111109)"/><use xlink:href="#as" transform="matrix(1,0,0,1,756.8789425097139,185) translate(0 145.77777777777774)"/><use xlink:href="#aq" transform="matrix(1,0,0,1,756.8789425097139,185) translate(12.34567901234567 145.77777777777774)"/><use xlink:href="#at" transform="matrix(1,0,0,1,756.8789425097139,185) translate(24.197530864197514 145.77777777777774)"/><use xlink:href="#Y" transform="matrix(1,0,0,1,756.8789425097139,185) translate(102.074074074074 145.77777777777774)"/><use xlink:href="#au" transform="matrix(1,0,0,1,756.8789425097139,185) translate(130.66666666666657 145.77777777777774)"/><use xlink:href="#as" transform="matrix(1,0,0,1,756.8789425097139,185) translate(0 172.4444444444444)"/><use xlink:href="#aq" transform="matrix(1,0,0,1,756.8789425097139,185) translate(12.34567901234567 172.4444444444444)"/><use xlink:href="#av" transform="matrix(1,0,0,1,756.8789425097139,185) translate(24.197530864197514 172.4444444444444)"/><use xlink:href="#V" transform="matrix(1,0,0,1,756.8789425097139,185) translate(78.4197530864197 172.4444444444444)"/><use xlink:href="#aw" transform="matrix(1,0,0,1,756.8789425097139,185) translate(130.66666666666657 172.4444444444444)"/><use xlink:href="#as" transform="matrix(1,0,0,1,756.8789425097139,185) translate(0 199.11111111111106)"/><use xlink:href="#aq" transform="matrix(1,0,0,1,756.8789425097139,185) translate(12.34567901234567 199.11111111111106)"/><use xlink:href="#at" transform="matrix(1,0,0,1,756.8789425097139,185) translate(24.197530864197514 199.11111111111106)"/><use xlink:href="#aw" transform="matrix(1,0,0,1,756.8789425097139,185) translate(102.074074074074 199.11111111111106)"/><use xlink:href="#as" transform="matrix(1,0,0,1,756.8789425097139,185) translate(0 225.77777777777771)"/><use xlink:href="#aq" transform="matrix(1,0,0,1,756.8789425097139,185) translate(12.34567901234567 225.77777777777771)"/><use xlink:href="#av" transform="matrix(1,0,0,1,756.8789425097139,185) translate(24.197530864197514 225.77777777777771)"/><use xlink:href="#ax" transform="matrix(1,0,0,1,756.8789425097139,185) translate(78.4197530864197 225.77777777777771)"/></g><path d="M1340.9 280.97c0 11.58-9.32 20.97-20.82 20.97s-20.83-9.4-20.83-20.97c0-11.58 9.32-20.97 20.83-20.97 11.5 0 20.82 9.4 20.82 20.97zM1259.17 280.97c0 11.58-9.33 20.97-20.83 20.97-11.5 0-20.82-9.4-20.82-20.97 0-11.58 9.32-20.97 20.82-20.97s20.83 9.4 20.83 20.97zM1427.33 280.97c0 11.58-9.32 20.97-20.82 20.97s-20.82-9.4-20.82-20.97c0-11.58 9.33-20.97 20.83-20.97 11.5 0 20.83 9.4 20.83 20.97z" stroke="#3a414a" stroke-width="3" fill="#fff"/><path d="M1382.55 364.84c0 11.58-9.32 20.97-20.82 20.97s-20.83-9.38-20.83-20.96 9.32-20.96 20.83-20.96c11.5 0 20.82 9.38 20.82 20.96z" stroke="#3a414a" fill="#282c33"/><path d="M1330.66 302.3l12.42 25" stroke="#3a414a" stroke-width="3" fill="none"/><path d="M1332.03 301.66l-2.7 1.33-.65-1.33 2.64-1.44z" stroke="#3a414a" stroke-width=".05" fill="#3a414a"/><path d="M1350.1 341.4l-10.5-10.7 8.3-4.13z" stroke="#3a414a" stroke-width="3" fill="#3a414a"/><path d="M1395.25 302.06l-13.73 25.72" stroke="#3a414a" stroke-width="3" fill="none"/><path d="M1396.32 300.98l1 .37-.77 1.44-2.64-1.42.8-1.5z" stroke="#3a414a" stroke-width=".05" fill="#3a414a"/><path d="M1374.1 341.7l2.62-14.78 8.18 4.36z" stroke="#3a414a" stroke-width="3" fill="#3a414a"/><path d="M1300.82 448.72c0 11.58-9.33 20.97-20.83 20.97-11.5 0-20.83-9.4-20.83-20.98s9.32-20.97 20.82-20.97 20.82 9.4 20.82 20.97zM1343.25 532.6c0 11.57-9.33 20.96-20.83 20.96-11.5 0-20.82-9.4-20.82-20.97 0-11.6 9.32-20.98 20.82-20.98s20.83 9.4 20.83 20.97z" stroke="#3a414a" fill="#282c33"/><path d="M1361.28 387.74l-32.66 103.7" stroke="#3a414a" stroke-width="3" fill="none"/><path d="M1361.7 386.3l1.63-.1-.63 2.03-2.87-.9.38-1.2z" stroke="#3a414a" stroke-width=".05" fill="#3a414a"/><path d="M1323.88 506.5l-.14-15 8.85 2.78z" stroke="#3a414a" stroke-width="3" fill="#3a414a"/><path d="M1238.82 304.86l34.6 102.84" stroke="#3a414a" stroke-width="3" fill="none"/><path d="M1238.3 303.44l1.6-.1.35 1.08-2.84.96-.7-2.13z" stroke="#3a414a" stroke-width=".05" fill="#3a414a"/><path d="M1278.44 422.65l-8.94-12.05 8.8-2.95z" stroke="#3a414a" stroke-width="3" fill="#3a414a"/><path d="M1345.83 381.16l-36.6 37.55" stroke="#3a414a" stroke-width="3" fill="none"/><path d="M1347.8 381.1l.1.08-1.03 1.05-2.14-2.1 1.13-1.16z" stroke="#3a414a" stroke-width=".05" fill="#3a414a"/><path d="M1298.23 430l6.64-13.45 6.64 6.47z" stroke="#3a414a" stroke-width="3" fill="#3a414a"/><path d="M1290.28 469.06l13.22 26.13" stroke="#3a414a" stroke-width="3" fill="none"/><path d="M1291.64 468.42l-2.68 1.36-.67-1.34 2.63-1.43z" stroke="#3a414a" stroke-width=".05" fill="#3a414a"/><path d="M1310.62 509.25l-10.58-10.63 8.27-4.2z" stroke="#3a414a" stroke-width="3" fill="#3a414a"/><path d="M1253.73 196.33h137.38l.02 47.34h-137.4z" fill="#fff" fill-opacity="0"/><g><use xlink:href="#ay" transform="matrix(1,0,0,1,1258.7322316908944,201.33333333333363) translate(0 24.888888888888886)"/></g><defs><path fill="#3a414a" d="M205 0l-28-72H64L36 0H1l101-248h38L239 0h-34zm-38-99l-47-123c-12 45-31 82-46 123h93" id="az"/><path fill="#3a414a" d="M195 0l-74-108L45 0H8l94-129-87-119h37l69 98 67-98h37l-84 118L233 0h-38" id="aA"/><path fill="#3a414a" d="M33 0v-248h34V0H33" id="aB"/><path fill="#3a414a" d="M140-251c81 0 123 46 123 126C263-46 219 4 140 4 59 4 17-45 17-125s42-126 123-126zm0 227c63 0 89-41 89-101s-29-99-89-99c-61 0-89 39-89 99S79-25 140-24" id="aC"/><path fill="#3a414a" d="M240 0l2-218c-23 76-54 145-80 218h-23L58-218 59 0H30v-248h44l77 211c21-75 51-140 76-211h43V0h-30" id="aD"/><path fill="#3a414a" d="M185-189c-5-48-123-54-124 2 14 75 158 14 163 119 3 78-121 87-175 55-17-10-28-26-33-46l33-7c5 56 141 63 141-1 0-78-155-14-162-118-5-82 145-84 179-34 5 7 8 16 11 25" id="aE"/><g id="a"><use transform="matrix(0.12345679012345674,0,0,0.12345679012345674,0,0)" xlink:href="#az"/><use transform="matrix(0.12345679012345674,0,0,0.12345679012345674,29.62962962962962,0)" xlink:href="#aA"/><use transform="matrix(0.12345679012345674,0,0,0.12345679012345674,59.25925925925924,0)" xlink:href="#aB"/><use transform="matrix(0.12345679012345674,0,0,0.12345679012345674,71.60493827160491,0)" xlink:href="#aC"/><use transform="matrix(0.12345679012345674,0,0,0.12345679012345674,106.17283950617279,0)" xlink:href="#aD"/><use transform="matrix(0.12345679012345674,0,0,0.12345679012345674,143.08641975308637,0)" xlink:href="#az"/><use transform="matrix(0.12345679012345674,0,0,0.12345679012345674,172.716049382716,0)" xlink:href="#aE"/></g><path fill="#3a414a" d="M87 75C49 33 22-17 22-94c0-76 28-126 65-167h31c-38 41-64 92-64 168S80 34 118 75H87" id="aF"/><path fill="#3a414a" d="M212-179c-10-28-35-45-73-45-59 0-87 40-87 99 0 60 29 101 89 101 43 0 62-24 78-52l27 14C228-24 195 4 139 4 59 4 22-46 18-125c-6-104 99-153 187-111 19 9 31 26 39 46" id="aG"/><path fill="#3a414a" d="M190 0L58-211 59 0H30v-248h39L202-35l-2-213h31V0h-41" id="aH"/><path fill="#3a414a" d="M30 0v-248h187v28H63v79h144v27H63v87h162V0H30" id="aI"/><path fill="#3a414a" d="M127-220V0H93v-220H8v-28h204v28h-85" id="aJ"/><g id="b"><use transform="matrix(0.06172839506172839,0,0,0.06172839506172839,0,0)" xlink:href="#aF"/><use transform="matrix(0.06172839506172839,0,0,0.06172839506172839,7.345679012345679,0)" xlink:href="#aG"/><use transform="matrix(0.06172839506172839,0,0,0.06172839506172839,23.333333333333332,0)" xlink:href="#aC"/><use transform="matrix(0.06172839506172839,0,0,0.06172839506172839,40.61728395061728,0)" xlink:href="#aH"/><use transform="matrix(0.06172839506172839,0,0,0.06172839506172839,56.60493827160493,0)" xlink:href="#aC"/><use transform="matrix(0.06172839506172839,0,0,0.06172839506172839,73.88888888888889,0)" xlink:href="#aG"/><use transform="matrix(0.06172839506172839,0,0,0.06172839506172839,89.87654320987654,0)" xlink:href="#aB"/><use transform="matrix(0.06172839506172839,0,0,0.06172839506172839,96.04938271604938,0)" xlink:href="#aD"/><use transform="matrix(0.06172839506172839,0,0,0.06172839506172839,114.50617283950616,0)" xlink:href="#aB"/><use transform="matrix(0.06172839506172839,0,0,0.06172839506172839,120.679012345679,0)" xlink:href="#aI"/><use transform="matrix(0.06172839506172839,0,0,0.06172839506172839,135.49382716049382,0)" xlink:href="#aH"/><use transform="matrix(0.06172839506172839,0,0,0.06172839506172839,151.48148148148147,0)" xlink:href="#aJ"/><use transform="matrix(0.06172839506172839,0,0,0.06172839506172839,164.56790123456787,0)" xlink:href="#aC"/></g><path fill="#3a414a" d="M30-248c87 1 191-15 191 75 0 78-77 80-158 76V0H30v-248zm33 125c57 0 124 11 124-50 0-59-68-47-124-48v98" id="aK"/><path fill="#3a414a" d="M30 0v-248h33v221h125V0H30" id="aL"/><path fill="#3a414a" d="M33-261c38 41 65 92 65 168S71 34 33 75H2C39 34 66-17 66-93S39-220 2-261h31" id="aM"/><g id="c"><use transform="matrix(0.06172839506172839,0,0,0.06172839506172839,0,0)" xlink:href="#aE"/><use transform="matrix(0.06172839506172839,0,0,0.06172839506172839,14.814814814814813,0)" xlink:href="#aB"/><use transform="matrix(0.06172839506172839,0,0,0.06172839506172839,20.98765432098765,0)" xlink:href="#aD"/><use transform="matrix(0.06172839506172839,0,0,0.06172839506172839,39.44444444444444,0)" xlink:href="#aK"/><use transform="matrix(0.06172839506172839,0,0,0.06172839506172839,54.25925925925925,0)" xlink:href="#aL"/><use transform="matrix(0.06172839506172839,0,0,0.06172839506172839,66.60493827160494,0)" xlink:href="#aI"/><use transform="matrix(0.06172839506172839,0,0,0.06172839506172839,81.41975308641975,0)" xlink:href="#aM"/></g><path fill="#3a414a" d="M100-194c62-1 85 37 85 99 1 63-27 99-86 99S16-35 15-95c0-66 28-99 85-99zM99-20c44 1 53-31 53-75 0-43-8-75-51-75s-53 32-53 75 10 74 51 75" id="aN"/><path fill="#3a414a" d="M135-143c-3-34-86-38-87 0 15 53 115 12 119 90S17 21 10-45l28-5c4 36 97 45 98 0-10-56-113-15-118-90-4-57 82-63 122-42 12 7 21 19 24 35" id="aO"/><path fill="#3a414a" d="M141-36C126-15 110 5 73 4 37 3 15-17 15-53c-1-64 63-63 125-63 3-35-9-54-41-54-24 1-41 7-42 31l-33-3c5-37 33-52 76-52 45 0 72 20 72 64v82c-1 20 7 32 28 27v20c-31 9-61-2-59-35zM48-53c0 20 12 33 32 33 41-3 63-29 60-74-43 2-92-5-92 41" id="aP"/><g id="d"><use transform="matrix(0.0493827160493827,0,0,0.0493827160493827,0,0)" xlink:href="#aG"/><use transform="matrix(0.0493827160493827,0,0,0.0493827160493827,12.79012345679012,0)" xlink:href="#aN"/><use transform="matrix(0.0493827160493827,0,0,0.0493827160493827,22.666666666666657,0)" xlink:href="#aO"/><use transform="matrix(0.0493827160493827,0,0,0.0493827160493827,31.555555555555546,0)" xlink:href="#aP"/><use transform="matrix(0.0493827160493827,0,0,0.0493827160493827,41.43209876543208,0)" xlink:href="#aO"/></g><path fill="#3a414a" d="M145-31C134-9 116 4 85 4 32 4 16-35 15-94c0-59 17-99 70-100 32-1 48 14 60 33 0-11-1-24 2-32h30l-1 268h-32zM93-21c41 0 51-33 51-76s-8-73-50-73c-40 0-46 35-46 75s5 74 45 74" id="aQ"/><path fill="#3a414a" d="M84 4C-5 8 30-112 23-190h32v120c0 31 7 50 39 49 72-2 45-101 50-169h31l1 190h-30c-1-10 1-25-2-33-11 22-28 36-60 37" id="aR"/><path fill="#3a414a" d="M100-194c63 0 86 42 84 106H49c0 40 14 67 53 68 26 1 43-12 49-29l28 8c-11 28-37 45-77 45C44 4 14-33 15-96c1-61 26-98 85-98zm52 81c6-60-76-77-97-28-3 7-6 17-6 28h103" id="aS"/><g id="e"><use transform="matrix(0.0493827160493827,0,0,0.0493827160493827,0,0)" xlink:href="#aQ"/><use transform="matrix(0.0493827160493827,0,0,0.0493827160493827,9.876543209876539,0)" xlink:href="#aR"/><use transform="matrix(0.0493827160493827,0,0,0.0493827160493827,19.753086419753078,0)" xlink:href="#aS"/></g><path fill="#3a414a" d="M59-47c-2 24 18 29 38 22v24C64 9 27 4 27-40v-127H5v-23h24l9-43h21v43h35v23H59v120" id="aT"/><g id="f"><use transform="matrix(0.0493827160493827,0,0,0.0493827160493827,0,0)" xlink:href="#aT"/><use transform="matrix(0.0493827160493827,0,0,0.0493827160493827,4.9382716049382696,0)" xlink:href="#aS"/></g><path fill="#3a414a" d="M115-194c55 1 70 41 70 98S169 2 115 4C84 4 66-9 55-30l1 105H24l-1-265h31l2 30c10-21 28-34 59-34zm-8 174c40 0 45-34 45-75s-6-73-45-74c-42 0-51 32-51 76 0 43 10 73 51 73" id="aU"/><path fill="#3a414a" d="M114-163C36-179 61-72 57 0H25l-1-190h30c1 12-1 29 2 39 6-27 23-49 58-41v29" id="aV"/><path fill="#3a414a" d="M96-169c-40 0-48 33-48 73s9 75 48 75c24 0 41-14 43-38l32 2c-6 37-31 61-74 61-59 0-76-41-82-99-10-93 101-131 147-64 4 7 5 14 7 22l-32 3c-4-21-16-35-41-35" id="aW"/><path fill="#3a414a" d="M117-194c89-4 53 116 60 194h-32v-121c0-31-8-49-39-48C34-167 62-67 57 0H25l-1-190h30c1 10-1 24 2 32 11-22 29-35 61-36" id="aX"/><g id="g"><use transform="matrix(0.0493827160493827,0,0,0.0493827160493827,0,0)" xlink:href="#aU"/><use transform="matrix(0.0493827160493827,0,0,0.0493827160493827,9.876543209876539,0)" xlink:href="#aP"/><use transform="matrix(0.0493827160493827,0,0,0.0493827160493827,19.753086419753078,0)" xlink:href="#aV"/><use transform="matrix(0.0493827160493827,0,0,0.0493827160493827,25.629629629629623,0)" xlink:href="#aS"/><use transform="matrix(0.0493827160493827,0,0,0.0493827160493827,35.506172839506156,0)" xlink:href="#aW"/><use transform="matrix(0.0493827160493827,0,0,0.0493827160493827,44.39506172839504,0)" xlink:href="#aS"/><use transform="matrix(0.0493827160493827,0,0,0.0493827160493827,54.27160493827157,0)" xlink:href="#aX"/></g><path fill="#3a414a" d="M115-194c53 0 69 39 70 98 0 66-23 100-70 100C84 3 66-7 56-30L54 0H23l1-261h32v101c10-23 28-34 59-34zm-8 174c40 0 45-34 45-75 0-40-5-75-45-74-42 0-51 32-51 76 0 43 10 73 51 73" id="aY"/><path fill="#3a414a" d="M108 0H70L1-190h34L89-25l56-165h34" id="aZ"/><path fill="#3a414a" d="M24-231v-30h32v30H24zM24 0v-190h32V0H24" id="ba"/><g id="h"><use transform="matrix(0.0493827160493827,0,0,0.0493827160493827,0,0)" xlink:href="#aN"/><use transform="matrix(0.0493827160493827,0,0,0.0493827160493827,9.876543209876539,0)" xlink:href="#aY"/><use transform="matrix(0.0493827160493827,0,0,0.0493827160493827,19.753086419753078,0)" xlink:href="#aZ"/><use transform="matrix(0.0493827160493827,0,0,0.0493827160493827,28.641975308641964,0)" xlink:href="#ba"/><use transform="matrix(0.0493827160493827,0,0,0.0493827160493827,32.543209876543195,0)" xlink:href="#aP"/><use transform="matrix(0.0493827160493827,0,0,0.0493827160493827,42.41975308641973,0)" xlink:href="#aO"/></g><g id="i"><use transform="matrix(0.0493827160493827,0,0,0.0493827160493827,0,0)" xlink:href="#aU"/><use transform="matrix(0.0493827160493827,0,0,0.0493827160493827,9.876543209876539,0)" xlink:href="#aN"/><use transform="matrix(0.0493827160493827,0,0,0.0493827160493827,19.753086419753078,0)" xlink:href="#aV"/></g><path fill="#3a414a" d="M100-194c62-1 85 37 85 99 1 63-27 99-86 99S16-35 15-95c0-66 28-99 85-99zM99-20c44 1 53-31 53-75 0-43-8-75-51-75s-53 32-53 75 10 74 51 75zM76-211c8-23 27-35 38-54h36v5l-58 49H76" id="bb"/><path fill="#3a414a" d="M68-38c1 34 0 65-14 84H32c9-13 17-26 17-46H33v-38h35" id="bc"/><g id="j"><use transform="matrix(0.0493827160493827,0,0,0.0493827160493827,0,0)" xlink:href="#ba"/><use transform="matrix(0.0493827160493827,0,0,0.0493827160493827,3.9012345679012332,0)" xlink:href="#aX"/><use transform="matrix(0.0493827160493827,0,0,0.0493827160493827,13.77777777777777,0)" xlink:href="#aT"/><use transform="matrix(0.0493827160493827,0,0,0.0493827160493827,18.71604938271604,0)" xlink:href="#aR"/><use transform="matrix(0.0493827160493827,0,0,0.0493827160493827,28.592592592592585,0)" xlink:href="#ba"/><use transform="matrix(0.0493827160493827,0,0,0.0493827160493827,32.493827160493815,0)" xlink:href="#aW"/><use transform="matrix(0.0493827160493827,0,0,0.0493827160493827,41.3827160493827,0)" xlink:href="#ba"/><use transform="matrix(0.0493827160493827,0,0,0.0493827160493827,45.283950617283935,0)" xlink:href="#bb"/><use transform="matrix(0.0493827160493827,0,0,0.0493827160493827,55.16049382716047,0)" xlink:href="#aX"/><use transform="matrix(0.0493827160493827,0,0,0.0493827160493827,65.03703703703701,0)" xlink:href="#bc"/></g><g id="k"><use transform="matrix(0.0493827160493827,0,0,0.0493827160493827,0,0)" xlink:href="#ba"/><use transform="matrix(0.0493827160493827,0,0,0.0493827160493827,3.9012345679012332,0)" xlink:href="#aX"/><use transform="matrix(0.0493827160493827,0,0,0.0493827160493827,13.77777777777777,0)" xlink:href="#aO"/><use transform="matrix(0.0493827160493827,0,0,0.0493827160493827,22.666666666666657,0)" xlink:href="#aT"/><use transform="matrix(0.0493827160493827,0,0,0.0493827160493827,27.604938271604922,0)" xlink:href="#ba"/><use transform="matrix(0.0493827160493827,0,0,0.0493827160493827,31.506172839506164,0)" xlink:href="#aX"/><use transform="matrix(0.0493827160493827,0,0,0.0493827160493827,41.3827160493827,0)" xlink:href="#aT"/><use transform="matrix(0.0493827160493827,0,0,0.0493827160493827,46.32098765432097,0)" xlink:href="#aN"/><use transform="matrix(0.0493827160493827,0,0,0.0493827160493827,56.19753086419751,0)" xlink:href="#bc"/></g><use transform="matrix(0.0493827160493827,0,0,0.0493827160493827,0,0)" xlink:href="#aN" id="l"/><path fill="#3a414a" d="M24 0v-261h32V0H24" id="bd"/><g id="m"><use transform="matrix(0.0493827160493827,0,0,0.0493827160493827,0,0)" xlink:href="#bd"/><use transform="matrix(0.0493827160493827,0,0,0.0493827160493827,3.9012345679012332,0)" xlink:href="#aN"/></g><path fill="#3a414a" d="M33 0v-38h34V0H33" id="be"/><g id="n"><use transform="matrix(0.0493827160493827,0,0,0.0493827160493827,0,0)" xlink:href="#aO"/><use transform="matrix(0.0493827160493827,0,0,0.0493827160493827,8.888888888888886,0)" xlink:href="#aS"/><use transform="matrix(0.0493827160493827,0,0,0.0493827160493827,18.765432098765423,0)" xlink:href="#aP"/><use transform="matrix(0.0493827160493827,0,0,0.0493827160493827,28.64197530864196,0)" xlink:href="#be"/></g><path fill="#3a414a" d="M233-177c-1 41-23 64-60 70L243 0h-38l-65-103H63V0H30v-248c88 3 205-21 203 71zM63-129c60-2 137 13 137-47 0-61-80-42-137-45v92" id="bf"/><g id="o"><use transform="matrix(0.12345679012345674,0,0,0.12345679012345674,0,0)" xlink:href="#aJ"/><use transform="matrix(0.12345679012345674,0,0,0.12345679012345674,27.037037037037027,0)" xlink:href="#aI"/><use transform="matrix(0.12345679012345674,0,0,0.12345679012345674,56.66666666666664,0)" xlink:href="#aC"/><use transform="matrix(0.12345679012345674,0,0,0.12345679012345674,91.23456790123453,0)" xlink:href="#bf"/><use transform="matrix(0.12345679012345674,0,0,0.12345679012345674,123.20987654320982,0)" xlink:href="#aI"/><use transform="matrix(0.12345679012345674,0,0,0.12345679012345674,152.83950617283944,0)" xlink:href="#aD"/><use transform="matrix(0.12345679012345674,0,0,0.12345679012345674,189.753086419753,0)" xlink:href="#az"/><use transform="matrix(0.12345679012345674,0,0,0.12345679012345674,219.38271604938262,0)" xlink:href="#aE"/></g><path fill="#3a414a" d="M232-93c-1 65-40 97-104 97C67 4 28-28 28-90v-158h33c8 89-33 224 67 224 102 0 64-133 71-224h33v155" id="bg"/><g id="p"><use transform="matrix(0.06172839506172839,0,0,0.06172839506172839,0,0)" xlink:href="#aG"/><use transform="matrix(0.06172839506172839,0,0,0.06172839506172839,15.987654320987653,0)" xlink:href="#aC"/><use transform="matrix(0.06172839506172839,0,0,0.06172839506172839,33.2716049382716,0)" xlink:href="#aD"/><use transform="matrix(0.06172839506172839,0,0,0.06172839506172839,51.72839506172839,0)" xlink:href="#aK"/><use transform="matrix(0.06172839506172839,0,0,0.06172839506172839,66.5432098765432,0)" xlink:href="#bg"/><use transform="matrix(0.06172839506172839,0,0,0.06172839506172839,82.53086419753086,0)" xlink:href="#aI"/><use transform="matrix(0.06172839506172839,0,0,0.06172839506172839,97.34567901234567,0)" xlink:href="#aE"/><use transform="matrix(0.06172839506172839,0,0,0.06172839506172839,112.16049382716048,0)" xlink:href="#aJ"/><use transform="matrix(0.06172839506172839,0,0,0.06172839506172839,125.2469135802469,0)" xlink:href="#aC"/><use transform="matrix(0.06172839506172839,0,0,0.06172839506172839,142.53086419753083,0)" xlink:href="#aM"/></g><g id="q"><use transform="matrix(0.06172839506172839,0,0,0.06172839506172839,0,0)" xlink:href="#aE"/><use transform="matrix(0.06172839506172839,0,0,0.06172839506172839,14.814814814814813,0)" xlink:href="#aB"/></g><path fill="#3a414a" d="M137 0h-34L2-248h35l83 218 83-218h36" id="bh"/><path fill="#3a414a" d="M97-269c9-18 26-28 38-43h36v5l-54 38H97zM30 0v-248h187v28H63v79h144v27H63v87h162V0H30" id="bi"/><g id="r"><use transform="matrix(0.06172839506172839,0,0,0.06172839506172839,0,0)" xlink:href="#aJ"/><use transform="matrix(0.06172839506172839,0,0,0.06172839506172839,13.518518518518517,0)" xlink:href="#bg"/><use transform="matrix(0.06172839506172839,0,0,0.06172839506172839,29.50617283950617,0)" xlink:href="#bh"/><use transform="matrix(0.06172839506172839,0,0,0.06172839506172839,44.32098765432099,0)" xlink:href="#aB"/><use transform="matrix(0.06172839506172839,0,0,0.06172839506172839,50.49382716049383,0)" xlink:href="#bi"/><use transform="matrix(0.06172839506172839,0,0,0.06172839506172839,65.30864197530865,0)" xlink:href="#bf"/><use transform="matrix(0.06172839506172839,0,0,0.06172839506172839,81.2962962962963,0)" xlink:href="#az"/><use transform="matrix(0.06172839506172839,0,0,0.06172839506172839,96.11111111111111,0)" xlink:href="#aD"/><use transform="matrix(0.06172839506172839,0,0,0.06172839506172839,114.5679012345679,0)" xlink:href="#aC"/><use transform="matrix(0.06172839506172839,0,0,0.06172839506172839,131.85185185185185,0)" xlink:href="#aE"/></g><path fill="#3a414a" d="M160-131c35 5 61 23 61 61C221 17 115-2 30 0v-248c76 3 177-17 177 60 0 33-19 50-47 57zm-97-11c50-1 110 9 110-42 0-47-63-36-110-37v79zm0 115c55-2 124 14 124-45 0-56-70-42-124-44v89" id="bj"/><g id="s"><use transform="matrix(0.06172839506172839,0,0,0.06172839506172839,0,0)" xlink:href="#bj"/><use transform="matrix(0.06172839506172839,0,0,0.06172839506172839,14.814814814814813,0)" xlink:href="#aB"/><use transform="matrix(0.06172839506172839,0,0,0.06172839506172839,20.98765432098765,0)" xlink:href="#aI"/><use transform="matrix(0.06172839506172839,0,0,0.06172839506172839,35.80246913580247,0)" xlink:href="#aH"/></g><path fill="#3a414a" d="M30-248c118-7 216 8 213 122C240-48 200 0 122 0H30v-248zM63-27c89 8 146-16 146-99s-60-101-146-95v194" id="bk"/><g id="t"><use transform="matrix(0.06172839506172839,0,0,0.06172839506172839,0,0)" xlink:href="#bk"/><use transform="matrix(0.06172839506172839,0,0,0.06172839506172839,15.987654320987653,0)" xlink:href="#aI"/><use transform="matrix(0.06172839506172839,0,0,0.06172839506172839,30.80246913580247,0)" xlink:href="#aL"/><use transform="matrix(0.06172839506172839,0,0,0.06172839506172839,43.148148148148145,0)" xlink:href="#aB"/><use transform="matrix(0.06172839506172839,0,0,0.06172839506172839,49.32098765432099,0)" xlink:href="#aD"/><use transform="matrix(0.06172839506172839,0,0,0.06172839506172839,67.77777777777777,0)" xlink:href="#aB"/><use transform="matrix(0.06172839506172839,0,0,0.06172839506172839,73.9506172839506,0)" xlink:href="#aJ"/><use transform="matrix(0.06172839506172839,0,0,0.06172839506172839,85.80246913580245,0)" xlink:href="#az"/><use transform="matrix(0.06172839506172839,0,0,0.06172839506172839,100.61728395061726,0)" xlink:href="#bk"/><use transform="matrix(0.06172839506172839,0,0,0.06172839506172839,116.60493827160492,0)" xlink:href="#aC"/><use transform="matrix(0.06172839506172839,0,0,0.06172839506172839,133.88888888888886,0)" xlink:href="#aE"/></g><g id="u"><use transform="matrix(0.06172839506172839,0,0,0.06172839506172839,0,0)" xlink:href="#aL"/><use transform="matrix(0.06172839506172839,0,0,0.06172839506172839,12.345679012345679,0)" xlink:href="#aC"/><use transform="matrix(0.06172839506172839,0,0,0.06172839506172839,29.629629629629626,0)" xlink:href="#aE"/></g><g id="v"><use transform="matrix(0.06172839506172839,0,0,0.06172839506172839,0,0)" xlink:href="#bk"/><use transform="matrix(0.06172839506172839,0,0,0.06172839506172839,15.987654320987653,0)" xlink:href="#aI"/></g><path fill="#3a414a" d="M25-269c9-18 26-28 38-43h36v5l-54 38H25zM33 0v-248h34V0H33" id="bl"/><g id="w"><use transform="matrix(0.06172839506172839,0,0,0.06172839506172839,0,0)" xlink:href="#aK"/><use transform="matrix(0.06172839506172839,0,0,0.06172839506172839,14.814814814814813,0)" xlink:href="#aC"/><use transform="matrix(0.06172839506172839,0,0,0.06172839506172839,32.09876543209876,0)" xlink:href="#bk"/><use transform="matrix(0.06172839506172839,0,0,0.06172839506172839,48.08641975308641,0)" xlink:href="#bf"/><use transform="matrix(0.06172839506172839,0,0,0.06172839506172839,64.07407407407406,0)" xlink:href="#bl"/><use transform="matrix(0.06172839506172839,0,0,0.06172839506172839,70.2469135802469,0)" xlink:href="#az"/><use transform="matrix(0.06172839506172839,0,0,0.06172839506172839,85.0617283950617,0)" xlink:href="#aD"/><use transform="matrix(0.06172839506172839,0,0,0.06172839506172839,103.51851851851849,0)" xlink:href="#aC"/><use transform="matrix(0.06172839506172839,0,0,0.06172839506172839,120.80246913580244,0)" xlink:href="#aE"/></g><g id="x"><use transform="matrix(0.06172839506172839,0,0,0.06172839506172839,0,0)" xlink:href="#aG"/><use transform="matrix(0.06172839506172839,0,0,0.06172839506172839,15.987654320987653,0)" xlink:href="#aC"/><use transform="matrix(0.06172839506172839,0,0,0.06172839506172839,33.2716049382716,0)" xlink:href="#aH"/><use transform="matrix(0.06172839506172839,0,0,0.06172839506172839,49.25925925925925,0)" xlink:href="#aG"/><use transform="matrix(0.06172839506172839,0,0,0.06172839506172839,65.24691358024691,0)" xlink:href="#aI"/><use transform="matrix(0.06172839506172839,0,0,0.06172839506172839,80.06172839506172,0)" xlink:href="#aH"/><use transform="matrix(0.06172839506172839,0,0,0.06172839506172839,96.04938271604938,0)" xlink:href="#aJ"/><use transform="matrix(0.06172839506172839,0,0,0.06172839506172839,109.5679012345679,0)" xlink:href="#bf"/><use transform="matrix(0.06172839506172839,0,0,0.06172839506172839,125.55555555555556,0)" xlink:href="#az"/><use transform="matrix(0.06172839506172839,0,0,0.06172839506172839,140.37037037037038,0)" xlink:href="#bf"/><use transform="matrix(0.06172839506172839,0,0,0.06172839506172839,156.35802469135803,0)" xlink:href="#aH"/><use transform="matrix(0.06172839506172839,0,0,0.06172839506172839,172.34567901234567,0)" xlink:href="#aC"/><use transform="matrix(0.06172839506172839,0,0,0.06172839506172839,189.62962962962962,0)" xlink:href="#aE"/></g><g id="y"><use transform="matrix(0.06172839506172839,0,0,0.06172839506172839,0,0)" xlink:href="#aI"/><use transform="matrix(0.06172839506172839,0,0,0.06172839506172839,14.814814814814813,0)" xlink:href="#aH"/></g><g id="z"><use transform="matrix(0.06172839506172839,0,0,0.06172839506172839,0,0)" xlink:href="#az"/><use transform="matrix(0.06172839506172839,0,0,0.06172839506172839,13.148148148148147,0)" xlink:href="#aJ"/><use transform="matrix(0.06172839506172839,0,0,0.06172839506172839,25,0)" xlink:href="#az"/><use transform="matrix(0.06172839506172839,0,0,0.06172839506172839,39.81481481481481,0)" xlink:href="#aG"/><use transform="matrix(0.06172839506172839,0,0,0.06172839506172839,55.80246913580246,0)" xlink:href="#az"/><use transform="matrix(0.06172839506172839,0,0,0.06172839506172839,70.61728395061728,0)" xlink:href="#bf"/></g><path fill="#3a414a" d="M137-103V0h-34v-103L8-248h37l75 118 75-118h37" id="bm"/><use transform="matrix(0.06172839506172839,0,0,0.06172839506172839,0,0)" xlink:href="#bm" id="A"/><path fill="#3a414a" d="M63-220v92h138v28H63V0H30v-248h175v28H63" id="bn"/><g id="B"><use transform="matrix(0.06172839506172839,0,0,0.06172839506172839,0,0)" xlink:href="#aG"/><use transform="matrix(0.06172839506172839,0,0,0.06172839506172839,15.987654320987653,0)" xlink:href="#aC"/><use transform="matrix(0.06172839506172839,0,0,0.06172839506172839,33.2716049382716,0)" xlink:href="#aH"/><use transform="matrix(0.06172839506172839,0,0,0.06172839506172839,49.25925925925925,0)" xlink:href="#bn"/><use transform="matrix(0.06172839506172839,0,0,0.06172839506172839,62.77777777777777,0)" xlink:href="#aB"/><use transform="matrix(0.06172839506172839,0,0,0.06172839506172839,68.9506172839506,0)" xlink:href="#az"/><use transform="matrix(0.06172839506172839,0,0,0.06172839506172839,83.76543209876542,0)" xlink:href="#bf"/></g><g id="C"><use transform="matrix(0.06172839506172839,0,0,0.06172839506172839,0,0)" xlink:href="#aD"/><use transform="matrix(0.06172839506172839,0,0,0.06172839506172839,18.456790123456788,0)" xlink:href="#aB"/><use transform="matrix(0.06172839506172839,0,0,0.06172839506172839,24.629629629629626,0)" xlink:href="#aI"/><use transform="matrix(0.06172839506172839,0,0,0.06172839506172839,39.44444444444444,0)" xlink:href="#aH"/><use transform="matrix(0.06172839506172839,0,0,0.06172839506172839,55.432098765432094,0)" xlink:href="#aJ"/><use transform="matrix(0.06172839506172839,0,0,0.06172839506172839,68.9506172839506,0)" xlink:href="#bf"/><use transform="matrix(0.06172839506172839,0,0,0.06172839506172839,84.93827160493827,0)" xlink:href="#az"/><use transform="matrix(0.06172839506172839,0,0,0.06172839506172839,99.75308641975307,0)" xlink:href="#aE"/></g><g id="E"><use transform="matrix(0.06172839506172839,0,0,0.06172839506172839,0,0)" xlink:href="#aH"/><use transform="matrix(0.06172839506172839,0,0,0.06172839506172839,15.987654320987653,0)" xlink:href="#aC"/></g><path fill="#3a414a" d="M143 4C61 4 22-44 18-125c-5-107 100-154 193-111 17 8 29 25 37 43l-32 9c-13-25-37-40-76-40-61 0-88 39-88 99 0 61 29 100 91 101 35 0 62-11 79-27v-45h-74v-28h105v86C228-13 192 4 143 4" id="bo"/><g id="F"><use transform="matrix(0.06172839506172839,0,0,0.06172839506172839,0,0)" xlink:href="#aG"/><use transform="matrix(0.06172839506172839,0,0,0.06172839506172839,15.987654320987653,0)" xlink:href="#az"/><use transform="matrix(0.06172839506172839,0,0,0.06172839506172839,30.80246913580247,0)" xlink:href="#aB"/><use transform="matrix(0.06172839506172839,0,0,0.06172839506172839,36.97530864197531,0)" xlink:href="#bo"/><use transform="matrix(0.06172839506172839,0,0,0.06172839506172839,54.25925925925926,0)" xlink:href="#az"/><use transform="matrix(0.06172839506172839,0,0,0.06172839506172839,69.07407407407408,0)" xlink:href="#aH"/><use transform="matrix(0.06172839506172839,0,0,0.06172839506172839,85.06172839506173,0)" xlink:href="#be"/></g><g id="G"><use transform="matrix(0.0493827160493827,0,0,0.0493827160493827,0,0)" xlink:href="#aG"/><use transform="matrix(0.0493827160493827,0,0,0.0493827160493827,12.79012345679012,0)" xlink:href="#aN"/><use transform="matrix(0.0493827160493827,0,0,0.0493827160493827,22.666666666666657,0)" xlink:href="#aO"/><use transform="matrix(0.0493827160493827,0,0,0.0493827160493827,31.555555555555546,0)" xlink:href="#aP"/><use transform="matrix(0.0493827160493827,0,0,0.0493827160493827,41.43209876543208,0)" xlink:href="#aO"/></g><path fill="#3a414a" d="M85-194c31 0 48 13 60 33l-1-100h32l1 261h-30c-2-10 0-23-3-31C134-8 116 4 85 4 32 4 16-35 15-94c0-66 23-100 70-100zm9 24c-40 0-46 34-46 75 0 40 6 74 45 74 42 0 51-32 51-76 0-42-9-74-50-73" id="bp"/><g id="H"><use transform="matrix(0.0493827160493827,0,0,0.0493827160493827,0,0)" xlink:href="#aV"/><use transform="matrix(0.0493827160493827,0,0,0.0493827160493827,5.876543209876541,0)" xlink:href="#aS"/><use transform="matrix(0.0493827160493827,0,0,0.0493827160493827,15.753086419753082,0)" xlink:href="#aO"/><use transform="matrix(0.0493827160493827,0,0,0.0493827160493827,24.641975308641968,0)" xlink:href="#aU"/><use transform="matrix(0.0493827160493827,0,0,0.0493827160493827,34.518518518518505,0)" xlink:href="#aP"/><use transform="matrix(0.0493827160493827,0,0,0.0493827160493827,44.39506172839504,0)" xlink:href="#bd"/><use transform="matrix(0.0493827160493827,0,0,0.0493827160493827,48.296296296296276,0)" xlink:href="#bp"/><use transform="matrix(0.0493827160493827,0,0,0.0493827160493827,58.17283950617281,0)" xlink:href="#aP"/><use transform="matrix(0.0493827160493827,0,0,0.0493827160493827,68.04938271604935,0)" xlink:href="#bp"/><use transform="matrix(0.0493827160493827,0,0,0.0493827160493827,77.9259259259259,0)" xlink:href="#aP"/><use transform="matrix(0.0493827160493827,0,0,0.0493827160493827,87.80246913580244,0)" xlink:href="#aO"/></g><g id="I"><use transform="matrix(0.0493827160493827,0,0,0.0493827160493827,0,0)" xlink:href="#aU"/><use transform="matrix(0.0493827160493827,0,0,0.0493827160493827,9.876543209876539,0)" xlink:href="#aN"/><use transform="matrix(0.0493827160493827,0,0,0.0493827160493827,19.753086419753078,0)" xlink:href="#aV"/></g><g id="J"><use transform="matrix(0.0493827160493827,0,0,0.0493827160493827,0,0)" xlink:href="#aN"/><use transform="matrix(0.0493827160493827,0,0,0.0493827160493827,9.876543209876539,0)" xlink:href="#aT"/><use transform="matrix(0.0493827160493827,0,0,0.0493827160493827,14.81481481481481,0)" xlink:href="#aV"/><use transform="matrix(0.0493827160493827,0,0,0.0493827160493827,20.69135802469135,0)" xlink:href="#aN"/><use transform="matrix(0.0493827160493827,0,0,0.0493827160493827,30.56790123456789,0)" xlink:href="#aO"/></g><path fill="#3a414a" d="M210-169c-67 3-38 105-44 169h-31v-121c0-29-5-50-35-48C34-165 62-65 56 0H25l-1-190h30c1 10-1 24 2 32 10-44 99-50 107 0 11-21 27-35 58-36 85-2 47 119 55 194h-31v-121c0-29-5-49-35-48" id="bq"/><g id="K"><use transform="matrix(0.0493827160493827,0,0,0.0493827160493827,0,0)" xlink:href="#aW"/><use transform="matrix(0.0493827160493827,0,0,0.0493827160493827,8.888888888888886,0)" xlink:href="#aN"/><use transform="matrix(0.0493827160493827,0,0,0.0493827160493827,18.765432098765423,0)" xlink:href="#aX"/><use transform="matrix(0.0493827160493827,0,0,0.0493827160493827,28.64197530864196,0)" xlink:href="#aN"/><use transform="matrix(0.0493827160493827,0,0,0.0493827160493827,38.5185185185185,0)" xlink:href="#aW"/><use transform="matrix(0.0493827160493827,0,0,0.0493827160493827,47.40740740740738,0)" xlink:href="#ba"/><use transform="matrix(0.0493827160493827,0,0,0.0493827160493827,51.30864197530861,0)" xlink:href="#bq"/><use transform="matrix(0.0493827160493827,0,0,0.0493827160493827,66.07407407407405,0)" xlink:href="#ba"/><use transform="matrix(0.0493827160493827,0,0,0.0493827160493827,69.97530864197527,0)" xlink:href="#aS"/><use transform="matrix(0.0493827160493827,0,0,0.0493827160493827,79.85185185185182,0)" xlink:href="#aX"/><use transform="matrix(0.0493827160493827,0,0,0.0493827160493827,89.72839506172836,0)" xlink:href="#aT"/><use transform="matrix(0.0493827160493827,0,0,0.0493827160493827,94.66666666666663,0)" xlink:href="#aN"/><use transform="matrix(0.0493827160493827,0,0,0.0493827160493827,104.54320987654317,0)" xlink:href="#aO"/></g><g id="L"><use transform="matrix(0.12345679012345674,0,0,0.12345679012345674,0,0)" xlink:href="#aK"/><use transform="matrix(0.12345679012345674,0,0,0.12345679012345674,26.296296296296287,0)" xlink:href="#az"/><use transform="matrix(0.12345679012345674,0,0,0.12345679012345674,55.92592592592591,0)" xlink:href="#aK"/><use transform="matrix(0.12345679012345674,0,0,0.12345679012345674,85.55555555555553,0)" xlink:href="#aI"/><use transform="matrix(0.12345679012345674,0,0,0.12345679012345674,115.18518518518515,0)" xlink:href="#bf"/><use transform="matrix(0.12345679012345674,0,0,0.12345679012345674,147.16049382716045,0)" xlink:href="#aE"/></g><path fill="#3a414a" d="M197 0v-115H63V0H30v-248h33v105h134v-105h34V0h-34" id="br"/><path fill="#3a414a" d="M33-154v-36h34v36H33zM33 0v-36h34V0H33" id="bs"/><g id="M"><use transform="matrix(0.12345679012345674,0,0,0.12345679012345674,0,0)" xlink:href="#az"/><use transform="matrix(0.12345679012345674,0,0,0.12345679012345674,29.62962962962962,0)" xlink:href="#br"/><use transform="matrix(0.12345679012345674,0,0,0.12345679012345674,61.604938271604915,0)" xlink:href="#aC"/><use transform="matrix(0.12345679012345674,0,0,0.12345679012345674,96.1728395061728,0)" xlink:href="#bf"/><use transform="matrix(0.12345679012345674,0,0,0.12345679012345674,128.1481481481481,0)" xlink:href="#az"/><use transform="matrix(0.12345679012345674,0,0,0.12345679012345674,157.77777777777771,0)" xlink:href="#bs"/></g><path fill="#3a414a" d="M182-130c37 4 62 22 62 59C244 23 116-4 24 0v-248c84 5 203-23 205 63 0 31-19 50-47 55zM76-148c40-3 101 13 101-30 0-44-60-28-101-31v61zm0 110c48-3 116 14 116-37 0-48-69-32-116-35v72" id="bt"/><path fill="#3a414a" d="M24 0v-248h52v208h133V0H24" id="bu"/><path fill="#3a414a" d="M199 0l-22-63H83L61 0H9l90-248h61L250 0h-51zm-33-102l-36-108c-10 38-24 72-36 108h72" id="bv"/><g id="P"><use transform="matrix(0.08641975308641973,0,0,0.08641975308641973,0,0)" xlink:href="#bt"/><use transform="matrix(0.08641975308641973,0,0,0.08641975308641973,22.38271604938271,0)" xlink:href="#bu"/><use transform="matrix(0.08641975308641973,0,0,0.08641975308641973,41.30864197530863,0)" xlink:href="#bv"/><use transform="matrix(0.08641975308641973,0,0,0.08641975308641973,63.69135802469135,0)" xlink:href="#bt"/><use transform="matrix(0.08641975308641973,0,0,0.08641975308641973,86.07407407407405,0)" xlink:href="#bu"/><use transform="matrix(0.08641975308641973,0,0,0.08641975308641973,104.99999999999997,0)" xlink:href="#bv"/><path fill="#3a414a" d="M-1.56 1.67h130.5v3.27H-1.57z"/></g><path fill="#3a414a" d="M-1.56 1.67h3.1v3.27h-3.1z" id="Q"/><path fill="#3a414a" d="M135-194c52 0 70 43 70 98 0 56-19 99-73 100-30 1-46-15-58-35L72 0H24l1-261h50v104c11-23 29-37 60-37zM114-30c31 0 40-27 40-66 0-37-7-63-39-63s-41 28-41 65c0 36 8 64 40 64" id="bw"/><path fill="#3a414a" d="M137-138c1-29-70-34-71-4 15 46 118 7 119 86 1 83-164 76-172 9l43-7c4 19 20 25 44 25 33 8 57-30 24-41C81-84 22-81 20-136c-2-80 154-74 161-7" id="bx"/><path fill="#3a414a" d="M115-3C79 11 28 4 28-45v-112H4v-33h27l15-45h31v45h36v33H77v99c-1 23 16 31 38 25v30" id="by"/><path fill="#3a414a" d="M135-150c-39-12-60 13-60 57V0H25l-1-190h47c2 13-1 29 3 40 6-28 27-53 61-41v41" id="bz"/><path fill="#3a414a" d="M133-34C117-15 103 5 69 4 32 3 11-16 11-54c-1-60 55-63 116-61 1-26-3-47-28-47-18 1-26 9-28 27l-52-2c7-38 36-58 82-57s74 22 75 68l1 82c-1 14 12 18 25 15v27c-30 8-71 5-69-32zm-48 3c29 0 43-24 42-57-32 0-66-3-65 30 0 17 8 27 23 27" id="bA"/><path fill="#3a414a" d="M190-63c-7 42-38 67-86 67-59 0-84-38-90-98-12-110 154-137 174-36l-49 2c-2-19-15-32-35-32-30 0-35 28-38 64-6 74 65 87 74 30" id="bB"/><path fill="#3a414a" d="M35-132v-50h50v50H35zM35 0v-49h50V0H35" id="bC"/><g id="S"><use transform="matrix(0.06172839506172835,0,0,0.06172839506172835,0,0)" xlink:href="#bv"/><use transform="matrix(0.06172839506172835,0,0,0.06172839506172835,15.987654320987643,0)" xlink:href="#bw"/><use transform="matrix(0.06172839506172835,0,0,0.06172839506172835,29.50617283950615,0)" xlink:href="#bx"/><use transform="matrix(0.06172839506172835,0,0,0.06172839506172835,41.85185185185182,0)" xlink:href="#by"/><use transform="matrix(0.06172839506172835,0,0,0.06172839506172835,49.19753086419749,0)" xlink:href="#bz"/><use transform="matrix(0.06172839506172835,0,0,0.06172839506172835,57.83950617283946,0)" xlink:href="#bA"/><use transform="matrix(0.06172839506172835,0,0,0.06172839506172835,70.18518518518513,0)" xlink:href="#bB"/><use transform="matrix(0.06172839506172835,0,0,0.06172839506172835,82.5308641975308,0)" xlink:href="#by"/><use transform="matrix(0.06172839506172835,0,0,0.06172839506172835,89.87654320987647,0)" xlink:href="#bC"/></g><g id="U"><use transform="matrix(0.04938271604938268,0,0,0.04938271604938268,0,0)" xlink:href="#bj"/><use transform="matrix(0.04938271604938268,0,0,0.04938271604938268,11.851851851851842,0)" xlink:href="#bd"/><use transform="matrix(0.04938271604938268,0,0,0.04938271604938268,15.753086419753075,0)" xlink:href="#aP"/><use transform="matrix(0.04938271604938268,0,0,0.04938271604938268,25.62962962962961,0)" xlink:href="#aY"/><use transform="matrix(0.04938271604938268,0,0,0.04938271604938268,35.50617283950615,0)" xlink:href="#bd"/><use transform="matrix(0.04938271604938268,0,0,0.04938271604938268,39.40740740740738,0)" xlink:href="#aP"/><use transform="matrix(0.04938271604938268,0,0,0.04938271604938268,49.28395061728392,0)" xlink:href="#aY"/><use transform="matrix(0.04938271604938268,0,0,0.04938271604938268,59.16049382716046,0)" xlink:href="#bd"/><use transform="matrix(0.04938271604938268,0,0,0.04938271604938268,63.06172839506169,0)" xlink:href="#aP"/></g><g id="V"><use transform="matrix(0.04938271604938268,0,0,0.04938271604938268,0,0)" xlink:href="#aY"/><use transform="matrix(0.04938271604938268,0,0,0.04938271604938268,9.876543209876536,0)" xlink:href="#bd"/><use transform="matrix(0.04938271604938268,0,0,0.04938271604938268,13.777777777777768,0)" xlink:href="#aP"/><use transform="matrix(0.04938271604938268,0,0,0.04938271604938268,23.6543209876543,0)" xlink:href="#aY"/><use transform="matrix(0.04938271604938268,0,0,0.04938271604938268,33.53086419753084,0)" xlink:href="#bd"/><use transform="matrix(0.04938271604938268,0,0,0.04938271604938268,37.43209876543207,0)" xlink:href="#aP"/></g><g id="W"><use transform="matrix(0.04938271604938268,0,0,0.04938271604938268,0,0)" xlink:href="#aY"/><use transform="matrix(0.04938271604938268,0,0,0.04938271604938268,9.876543209876536,0)" xlink:href="#bd"/><use transform="matrix(0.04938271604938268,0,0,0.04938271604938268,13.777777777777768,0)" xlink:href="#aP"/></g><g id="Y"><use transform="matrix(0.04938271604938268,0,0,0.04938271604938268,0,0)" xlink:href="#aY"/><use transform="matrix(0.04938271604938268,0,0,0.04938271604938268,9.876543209876536,0)" xlink:href="#bd"/><use transform="matrix(0.04938271604938268,0,0,0.04938271604938268,13.777777777777768,0)" xlink:href="#aP"/></g><g id="Z"><use transform="matrix(0.04938271604938268,0,0,0.04938271604938268,0,0)" xlink:href="#aY"/><use transform="matrix(0.04938271604938268,0,0,0.04938271604938268,9.876543209876536,0)" xlink:href="#bd"/><use transform="matrix(0.04938271604938268,0,0,0.04938271604938268,13.777777777777768,0)" xlink:href="#aP"/><use transform="matrix(0.04938271604938268,0,0,0.04938271604938268,23.6543209876543,0)" xlink:href="#aY"/><use transform="matrix(0.04938271604938268,0,0,0.04938271604938268,33.53086419753084,0)" xlink:href="#bd"/><use transform="matrix(0.04938271604938268,0,0,0.04938271604938268,37.43209876543207,0)" xlink:href="#aP"/><use transform="matrix(0.04938271604938268,0,0,0.04938271604938268,47.30864197530861,0)" xlink:href="#aY"/><use transform="matrix(0.04938271604938268,0,0,0.04938271604938268,57.185185185185155,0)" xlink:href="#bd"/><use transform="matrix(0.04938271604938268,0,0,0.04938271604938268,61.08641975308638,0)" xlink:href="#aP"/></g><g id="aa"><use transform="matrix(0.04938271604938268,0,0,0.04938271604938268,0,0)" xlink:href="#aY"/><use transform="matrix(0.04938271604938268,0,0,0.04938271604938268,9.876543209876536,0)" xlink:href="#bd"/><use transform="matrix(0.04938271604938268,0,0,0.04938271604938268,13.777777777777768,0)" xlink:href="#aP"/><use transform="matrix(0.04938271604938268,0,0,0.04938271604938268,23.6543209876543,0)" xlink:href="#be"/></g><path fill="#3a414a" d="M25 0v-261h50V0H25" id="bD"/><g id="ad"><use transform="matrix(0.06172839506172835,0,0,0.06172839506172835,0,0)" xlink:href="#bt"/><use transform="matrix(0.06172839506172835,0,0,0.06172839506172835,15.987654320987643,0)" xlink:href="#bD"/><use transform="matrix(0.06172839506172835,0,0,0.06172839506172835,22.16049382716048,0)" xlink:href="#bA"/><use transform="matrix(0.06172839506172835,0,0,0.06172839506172835,34.50617283950615,0)" xlink:href="#bw"/><use transform="matrix(0.06172839506172835,0,0,0.06172839506172835,48.024691358024654,0)" xlink:href="#bD"/><use transform="matrix(0.06172839506172835,0,0,0.06172839506172835,54.19753086419749,0)" xlink:href="#bA"/><use transform="matrix(0.06172839506172835,0,0,0.06172839506172835,66.54320987654316,0)" xlink:href="#bw"/><use transform="matrix(0.06172839506172835,0,0,0.06172839506172835,80.06172839506166,0)" xlink:href="#bD"/><use transform="matrix(0.06172839506172835,0,0,0.06172839506172835,86.2345679012345,0)" xlink:href="#bA"/><use transform="matrix(0.06172839506172835,0,0,0.06172839506172835,98.58024691358017,0)" xlink:href="#bC"/></g><g id="af"><use transform="matrix(0.04938271604938268,0,0,0.04938271604938268,0,0)" xlink:href="#bj"/><use transform="matrix(0.04938271604938268,0,0,0.04938271604938268,11.851851851851842,0)" xlink:href="#bd"/><use transform="matrix(0.04938271604938268,0,0,0.04938271604938268,15.753086419753075,0)" xlink:href="#aP"/><use transform="matrix(0.04938271604938268,0,0,0.04938271604938268,25.62962962962961,0)" xlink:href="#aY"/><use transform="matrix(0.04938271604938268,0,0,0.04938271604938268,35.50617283950615,0)" xlink:href="#bd"/><use transform="matrix(0.04938271604938268,0,0,0.04938271604938268,39.40740740740738,0)" xlink:href="#aP"/><use transform="matrix(0.04938271604938268,0,0,0.04938271604938268,49.28395061728392,0)" xlink:href="#aY"/><use transform="matrix(0.04938271604938268,0,0,0.04938271604938268,59.16049382716046,0)" xlink:href="#bd"/><use transform="matrix(0.04938271604938268,0,0,0.04938271604938268,63.06172839506169,0)" xlink:href="#aP"/><use transform="matrix(0.04938271604938268,0,0,0.04938271604938268,72.93827160493822,0)" xlink:href="#aY"/><use transform="matrix(0.04938271604938268,0,0,0.04938271604938268,82.81481481481475,0)" xlink:href="#bd"/><use transform="matrix(0.04938271604938268,0,0,0.04938271604938268,86.71604938271598,0)" xlink:href="#aP"/></g><g id="ag"><use transform="matrix(0.04938271604938268,0,0,0.04938271604938268,0,0)" xlink:href="#aY"/><use transform="matrix(0.04938271604938268,0,0,0.04938271604938268,9.876543209876536,0)" xlink:href="#bd"/><use transform="matrix(0.04938271604938268,0,0,0.04938271604938268,13.777777777777768,0)" xlink:href="#aP"/><use transform="matrix(0.04938271604938268,0,0,0.04938271604938268,23.6543209876543,0)" xlink:href="#be"/><use transform="matrix(0.04938271604938268,0,0,0.04938271604938268,28.59259259259257,0)" xlink:href="#be"/><use transform="matrix(0.04938271604938268,0,0,0.04938271604938268,33.53086419753084,0)" xlink:href="#be"/></g><g id="aj"><use transform="matrix(0.04938271604938268,0,0,0.04938271604938268,0,0)" xlink:href="#be"/><use transform="matrix(0.04938271604938268,0,0,0.04938271604938268,4.938271604938268,0)" xlink:href="#be"/><use transform="matrix(0.04938271604938268,0,0,0.04938271604938268,9.876543209876536,0)" xlink:href="#be"/></g><g id="al"><use transform="matrix(0.12345679012345674,0,0,0.12345679012345674,0,0)" xlink:href="#aG"/><use transform="matrix(0.12345679012345674,0,0,0.12345679012345674,31.975308641975296,0)" xlink:href="#aC"/><use transform="matrix(0.12345679012345674,0,0,0.12345679012345674,66.54320987654319,0)" xlink:href="#aD"/><use transform="matrix(0.12345679012345674,0,0,0.12345679012345674,103.45679012345676,0)" xlink:href="#aC"/></g><g id="am"><use transform="matrix(0.12345679012345674,0,0,0.12345679012345674,0,0)" xlink:href="#bk"/><use transform="matrix(0.12345679012345674,0,0,0.12345679012345674,31.975308641975296,0)" xlink:href="#aI"/><use transform="matrix(0.12345679012345674,0,0,0.12345679012345674,61.604938271604915,0)" xlink:href="#bj"/><use transform="matrix(0.12345679012345674,0,0,0.12345679012345674,91.23456790123453,0)" xlink:href="#aI"/><use transform="matrix(0.12345679012345674,0,0,0.12345679012345674,120.86419753086415,0)" xlink:href="#bf"/><use transform="matrix(0.12345679012345674,0,0,0.12345679012345674,152.83950617283944,0)" xlink:href="#bl"/><use transform="matrix(0.12345679012345674,0,0,0.12345679012345674,165.1851851851851,0)" xlink:href="#az"/><use transform="matrix(0.12345679012345674,0,0,0.12345679012345674,194.81481481481472,0)" xlink:href="#aH"/></g><g id="an"><use transform="matrix(0.12345679012345674,0,0,0.12345679012345674,0,0)" xlink:href="#aE"/><use transform="matrix(0.12345679012345674,0,0,0.12345679012345674,29.62962962962962,0)" xlink:href="#aI"/><use transform="matrix(0.12345679012345674,0,0,0.12345679012345674,59.25925925925924,0)" xlink:href="#bf"/><use transform="matrix(0.12345679012345674,0,0,0.12345679012345674,91.23456790123453,0)" xlink:href="#bs"/></g><path fill="#3a414a" d="M25-224v-37h50v37H25zM25 0v-190h50V0H25" id="bE"/><path fill="#3a414a" d="M110-194c64 0 96 36 96 99 0 64-35 99-97 99-61 0-95-36-95-99 0-62 34-99 96-99zm-1 164c35 0 45-28 45-65 0-40-10-65-43-65-34 0-45 26-45 65 0 36 10 65 43 65" id="bF"/><path fill="#3a414a" d="M195-6C206 82 75 100 31 46c-4-6-6-13-8-21l49-6c3 16 16 24 34 25 40 0 42-37 40-79-11 22-30 35-61 35-53 0-70-43-70-97 0-56 18-96 73-97 30 0 46 14 59 34l2-30h47zm-90-29c32 0 41-27 41-63 0-35-9-62-40-62-32 0-39 29-40 63 0 36 9 62 39 62" id="bG"/><path fill="#3a414a" d="M121-226c-27-7-43 5-38 36h38v33H83V0H34v-157H6v-33h28c-9-59 32-81 87-68v32" id="bH"/><path fill="#3a414a" d="M25 0v-190h50V0H25zm-5-208v-5l45-51h45v8l-60 48H20" id="bI"/><g id="ap"><use transform="matrix(0.06172839506172835,0,0,0.06172839506172835,0,0)" xlink:href="#bt"/><use transform="matrix(0.06172839506172835,0,0,0.06172839506172835,15.987654320987643,0)" xlink:href="#bE"/><use transform="matrix(0.06172839506172835,0,0,0.06172839506172835,22.16049382716048,0)" xlink:href="#bD"/><use transform="matrix(0.06172839506172835,0,0,0.06172839506172835,28.333333333333314,0)" xlink:href="#bE"/><use transform="matrix(0.06172839506172835,0,0,0.06172839506172835,34.50617283950615,0)" xlink:href="#bF"/><use transform="matrix(0.06172839506172835,0,0,0.06172839506172835,48.024691358024654,0)" xlink:href="#bG"/><use transform="matrix(0.06172839506172835,0,0,0.06172839506172835,61.54320987654316,0)" xlink:href="#bz"/><use transform="matrix(0.06172839506172835,0,0,0.06172839506172835,70.18518518518513,0)" xlink:href="#bA"/><use transform="matrix(0.06172839506172835,0,0,0.06172839506172835,82.5308641975308,0)" xlink:href="#bH"/><use transform="matrix(0.06172839506172835,0,0,0.06172839506172835,89.87654320987647,0)" xlink:href="#bI"/><use transform="matrix(0.06172839506172835,0,0,0.06172839506172835,96.04938271604931,0)" xlink:href="#bA"/><use transform="matrix(0.06172839506172835,0,0,0.06172839506172835,108.39506172839498,0)" xlink:href="#bC"/></g><path fill="#3a414a" d="M80-196l47-18 7 23-49 13 32 44-20 13-27-46-27 45-21-12 33-44-49-13 8-23 47 19-2-53h23" id="bJ"/><use transform="matrix(0.04938271604938268,0,0,0.04938271604938268,0,0)" xlink:href="#bJ" id="aq"/><g id="ar"><use transform="matrix(0.04938271604938268,0,0,0.04938271604938268,0,0)" xlink:href="#bj"/><use transform="matrix(0.04938271604938268,0,0,0.04938271604938268,11.851851851851842,0)" xlink:href="#bd"/><use transform="matrix(0.04938271604938268,0,0,0.04938271604938268,15.753086419753075,0)" xlink:href="#aP"/><use transform="matrix(0.04938271604938268,0,0,0.04938271604938268,25.62962962962961,0)" xlink:href="#aY"/><use transform="matrix(0.04938271604938268,0,0,0.04938271604938268,35.50617283950615,0)" xlink:href="#bd"/><use transform="matrix(0.04938271604938268,0,0,0.04938271604938268,39.40740740740738,0)" xlink:href="#aP"/><use transform="matrix(0.04938271604938268,0,0,0.04938271604938268,49.28395061728392,0)" xlink:href="#aY"/><use transform="matrix(0.04938271604938268,0,0,0.04938271604938268,59.16049382716046,0)" xlink:href="#bd"/><use transform="matrix(0.04938271604938268,0,0,0.04938271604938268,63.06172839506169,0)" xlink:href="#aP"/><use transform="matrix(0.04938271604938268,0,0,0.04938271604938268,72.93827160493822,0)" xlink:href="#aY"/><use transform="matrix(0.04938271604938268,0,0,0.04938271604938268,82.81481481481475,0)" xlink:href="#bd"/><use transform="matrix(0.04938271604938268,0,0,0.04938271604938268,86.71604938271598,0)" xlink:href="#aP"/></g><g id="at"><use transform="matrix(0.04938271604938268,0,0,0.04938271604938268,0,0)" xlink:href="#bj"/><use transform="matrix(0.04938271604938268,0,0,0.04938271604938268,11.851851851851842,0)" xlink:href="#bd"/><use transform="matrix(0.04938271604938268,0,0,0.04938271604938268,15.753086419753075,0)" xlink:href="#aP"/><use transform="matrix(0.04938271604938268,0,0,0.04938271604938268,25.62962962962961,0)" xlink:href="#aY"/><use transform="matrix(0.04938271604938268,0,0,0.04938271604938268,35.50617283950615,0)" xlink:href="#bd"/><use transform="matrix(0.04938271604938268,0,0,0.04938271604938268,39.40740740740738,0)" xlink:href="#aP"/><use transform="matrix(0.04938271604938268,0,0,0.04938271604938268,49.28395061728392,0)" xlink:href="#aY"/><use transform="matrix(0.04938271604938268,0,0,0.04938271604938268,59.16049382716046,0)" xlink:href="#bd"/><use transform="matrix(0.04938271604938268,0,0,0.04938271604938268,63.06172839506169,0)" xlink:href="#aP"/></g><g id="au"><use transform="matrix(0.04938271604938268,0,0,0.04938271604938268,0,0)" xlink:href="#aY"/><use transform="matrix(0.04938271604938268,0,0,0.04938271604938268,9.876543209876536,0)" xlink:href="#bd"/><use transform="matrix(0.04938271604938268,0,0,0.04938271604938268,13.777777777777768,0)" xlink:href="#aP"/><use transform="matrix(0.04938271604938268,0,0,0.04938271604938268,23.6543209876543,0)" xlink:href="#aY"/><use transform="matrix(0.04938271604938268,0,0,0.04938271604938268,33.53086419753084,0)" xlink:href="#bd"/><use transform="matrix(0.04938271604938268,0,0,0.04938271604938268,37.43209876543207,0)" xlink:href="#aP"/></g><g id="av"><use transform="matrix(0.04938271604938268,0,0,0.04938271604938268,0,0)" xlink:href="#bj"/><use transform="matrix(0.04938271604938268,0,0,0.04938271604938268,11.851851851851842,0)" xlink:href="#bd"/><use transform="matrix(0.04938271604938268,0,0,0.04938271604938268,15.753086419753075,0)" xlink:href="#aP"/><use transform="matrix(0.04938271604938268,0,0,0.04938271604938268,25.62962962962961,0)" xlink:href="#aY"/><use transform="matrix(0.04938271604938268,0,0,0.04938271604938268,35.50617283950615,0)" xlink:href="#bd"/><use transform="matrix(0.04938271604938268,0,0,0.04938271604938268,39.40740740740738,0)" xlink:href="#aP"/></g><g id="aw"><use transform="matrix(0.04938271604938268,0,0,0.04938271604938268,0,0)" xlink:href="#aY"/><use transform="matrix(0.04938271604938268,0,0,0.04938271604938268,9.876543209876536,0)" xlink:href="#bd"/><use transform="matrix(0.04938271604938268,0,0,0.04938271604938268,13.777777777777768,0)" xlink:href="#aP"/></g><g id="ax"><use transform="matrix(0.04938271604938268,0,0,0.04938271604938268,0,0)" xlink:href="#aY"/><use transform="matrix(0.04938271604938268,0,0,0.04938271604938268,9.876543209876536,0)" xlink:href="#bd"/><use transform="matrix(0.04938271604938268,0,0,0.04938271604938268,13.777777777777768,0)" xlink:href="#aP"/><use transform="matrix(0.04938271604938268,0,0,0.04938271604938268,23.6543209876543,0)" xlink:href="#aY"/><use transform="matrix(0.04938271604938268,0,0,0.04938271604938268,33.53086419753084,0)" xlink:href="#bd"/><use transform="matrix(0.04938271604938268,0,0,0.04938271604938268,37.43209876543207,0)" xlink:href="#aP"/></g><g id="ay"><use transform="matrix(0.08641975308641973,0,0,0.08641975308641973,0,0)" xlink:href="#bt"/><use transform="matrix(0.08641975308641973,0,0,0.08641975308641973,22.38271604938271,0)" xlink:href="#bu"/><use transform="matrix(0.08641975308641973,0,0,0.08641975308641973,41.30864197530863,0)" xlink:href="#bv"/><use transform="matrix(0.08641975308641973,0,0,0.08641975308641973,63.69135802469135,0)" xlink:href="#bt"/><use transform="matrix(0.08641975308641973,0,0,0.08641975308641973,86.07407407407405,0)" xlink:href="#bu"/><use transform="matrix(0.08641975308641973,0,0,0.08641975308641973,104.99999999999997,0)" xlink:href="#bv"/><path fill="#3a414a" d="M-1.56 1.67h130.5v3.27H-1.57z"/></g></defs></g></svg>