<?xml version="1.0" encoding="UTF-8" standalone="no"?>
<!DOCTYPE svg PUBLIC "-//W3C//DTD SVG 1.1//EN"
 "http://www.w3.org/Graphics/SVG/1.1/DTD/svg11.dtd">
<!-- Generated by graphviz version 2.43.0 (0)
 -->
<!-- Title: %3 Pages: 1 -->
<svg width="2559pt" height="126pt"
 viewBox="0.00 0.00 2559.00 126.00" xmlns="http://www.w3.org/2000/svg" xmlns:xlink="http://www.w3.org/1999/xlink">
<g id="graph0" class="graph" transform="scale(1 1) rotate(0) translate(4 122)">
<title>%3</title>
<polygon fill="white" stroke="transparent" points="-4,4 -4,-122 2555,-122 2555,4 -4,4"/>
<!-- El esfuerzo involuntario es el invertido por una persona en un trabajo que no disfruta en sí -->
<g id="node1" class="node">
<title>El esfuerzo involuntario es el invertido por una persona en un trabajo que no disfruta en sí</title>
<polygon fill="none" stroke="black" points="2551,-118 1885,-118 1885,-82 2551,-82 2551,-118"/>
<text text-anchor="middle" x="2218" y="-96.3" font-family="Times,serif" font-size="14.00">El esfuerzo involuntario es el invertido por una persona en un trabajo que no disfruta en sí</text>
</g>
<!-- El total de esfuerzo involuntario básico necesario para mantener la salud de una población 
	es menor al total de esfuerzo involuntario que está siendo actualmente invertido -->
<g id="node3" class="node">
<title>El total de esfuerzo involuntario básico necesario para mantener la salud de una población 
	es menor al total de esfuerzo involuntario que está siendo actualmente invertido</title>
<polygon fill="none" stroke="black" points="1849,-92 1180,-92 1180,-54 1849,-54 1849,-92"/>
<text text-anchor="middle" x="1514.5" y="-76.8" font-family="Times,serif" font-size="14.00">El total de esfuerzo involuntario básico necesario para mantener la salud de una población </text>
<text text-anchor="middle" x="1514.5" y="-61.8" font-family="Times,serif" font-size="14.00">	es menor al total de esfuerzo involuntario que está siendo actualmente invertido</text>
</g>
<!-- El esfuerzo involuntario es el invertido por una persona en un trabajo que no disfruta en sí&#45;&gt;El total de esfuerzo involuntario básico necesario para mantener la salud de una población 
	es menor al total de esfuerzo involuntario que está siendo actualmente invertido -->
<g id="edge1" class="edge">
<title>El esfuerzo involuntario es el invertido por una persona en un trabajo que no disfruta en sí&#45;&gt;El total de esfuerzo involuntario básico necesario para mantener la salud de una población 
	es menor al total de esfuerzo involuntario que está siendo actualmente invertido</title>
<path fill="none" stroke="black" d="M1885,-87.22C1876.4,-86.89 1867.79,-86.56 1859.19,-86.23"/>
<polygon fill="black" stroke="black" points="1859.22,-82.73 1849.09,-85.84 1858.95,-89.72 1859.22,-82.73"/>
</g>
<!-- Hay personas haciendo trabajos no esenciales que no disfrutan -->
<g id="node2" class="node">
<title>Hay personas haciendo trabajos no esenciales que no disfrutan</title>
<polygon fill="none" stroke="black" points="2451.5,-64 1984.5,-64 1984.5,-28 2451.5,-28 2451.5,-64"/>
<text text-anchor="middle" x="2218" y="-42.3" font-family="Times,serif" font-size="14.00">Hay personas haciendo trabajos no esenciales que no disfrutan</text>
</g>
<!-- Hay personas haciendo trabajos no esenciales que no disfrutan&#45;&gt;El total de esfuerzo involuntario básico necesario para mantener la salud de una población 
	es menor al total de esfuerzo involuntario que está siendo actualmente invertido -->
<g id="edge2" class="edge">
<title>Hay personas haciendo trabajos no esenciales que no disfrutan&#45;&gt;El total de esfuerzo involuntario básico necesario para mantener la salud de una población 
	es menor al total de esfuerzo involuntario que está siendo actualmente invertido</title>
<path fill="none" stroke="black" d="M1984.39,-54.95C1944.23,-56.5 1901.74,-58.13 1859.38,-59.76"/>
<polygon fill="black" stroke="black" points="1859.05,-56.27 1849.2,-60.16 1859.32,-63.27 1859.05,-56.27"/>
</g>
<!-- PocoEficiente -->
<g id="node4" class="node">
<title>PocoEficiente</title>
<polygon fill="none" stroke="black" points="1144,-90 688,-90 688,-54 1144,-54 1144,-90"/>
<text text-anchor="middle" x="916" y="-68.3" font-family="Times,serif" font-size="14.00">La forma actual de llevar una vida saludable es poco eficiente</text>
</g>
<!-- El total de esfuerzo involuntario básico necesario para mantener la salud de una población 
	es menor al total de esfuerzo involuntario que está siendo actualmente invertido&#45;&gt;PocoEficiente -->
<g id="edge3" class="edge">
<title>El total de esfuerzo involuntario básico necesario para mantener la salud de una población 
	es menor al total de esfuerzo involuntario que está siendo actualmente invertido&#45;&gt;PocoEficiente</title>
<path fill="none" stroke="black" d="M1179.94,-72.44C1171.41,-72.43 1162.92,-72.41 1154.5,-72.4"/>
<polygon fill="black" stroke="black" points="1154.27,-68.9 1144.26,-72.38 1154.26,-75.9 1154.27,-68.9"/>
</g>
<!-- La forma actual de llevar una vida saludable es poco eficiente y hasta a veces poco eficaz -->
<g id="node7" class="node">
<title>La forma actual de llevar una vida saludable es poco eficiente y hasta a veces poco eficaz</title>
<polygon fill="none" stroke="black" points="652,-63 0,-63 0,-27 652,-27 652,-63"/>
<text text-anchor="middle" x="326" y="-41.3" font-family="Times,serif" font-size="14.00">La forma actual de llevar una vida saludable es poco eficiente y hasta a veces poco eficaz</text>
</g>
<!-- PocoEficiente&#45;&gt;La forma actual de llevar una vida saludable es poco eficiente y hasta a veces poco eficaz -->
<g id="edge5" class="edge">
<title>PocoEficiente&#45;&gt;La forma actual de llevar una vida saludable es poco eficiente y hasta a veces poco eficaz</title>
<path fill="none" stroke="black" d="M687.66,-61.56C679.39,-61.18 671.05,-60.8 662.66,-60.41"/>
<polygon fill="black" stroke="black" points="662.55,-56.9 652.4,-59.94 662.23,-63.9 662.55,-56.9"/>
</g>
<!-- Hay necesidades básicas no cubiertas -->
<g id="node5" class="node">
<title>Hay necesidades básicas no cubiertas</title>
<polygon fill="none" stroke="black" points="1658,-36 1371,-36 1371,0 1658,0 1658,-36"/>
<text text-anchor="middle" x="1514.5" y="-14.3" font-family="Times,serif" font-size="14.00">Hay necesidades básicas no cubiertas</text>
</g>
<!-- PocoEficaz -->
<g id="node6" class="node">
<title>PocoEficaz</title>
<polygon fill="none" stroke="black" points="1134,-36 698,-36 698,0 1134,0 1134,-36"/>
<text text-anchor="middle" x="916" y="-14.3" font-family="Times,serif" font-size="14.00">La forma actual de llevar una vida saludable es poco eficaz</text>
</g>
<!-- Hay necesidades básicas no cubiertas&#45;&gt;PocoEficaz -->
<g id="edge4" class="edge">
<title>Hay necesidades básicas no cubiertas&#45;&gt;PocoEficaz</title>
<path fill="none" stroke="black" d="M1370.62,-18C1302.92,-18 1220.4,-18 1144.39,-18"/>
<polygon fill="black" stroke="black" points="1144.2,-14.5 1134.2,-18 1144.2,-21.5 1144.2,-14.5"/>
</g>
<!-- PocoEficaz&#45;&gt;La forma actual de llevar una vida saludable es poco eficiente y hasta a veces poco eficaz -->
<g id="edge6" class="edge">
<title>PocoEficaz&#45;&gt;La forma actual de llevar una vida saludable es poco eficiente y hasta a veces poco eficaz</title>
<path fill="none" stroke="black" d="M697.72,-27.98C686.03,-28.51 674.16,-29.06 662.2,-29.61"/>
<polygon fill="black" stroke="black" points="661.96,-26.12 652.13,-30.07 662.29,-33.11 661.96,-26.12"/>
</g>
</g>
</svg>
